<?xml version="1.0" encoding="utf-8"?>
<!-- Generator: Adobe Illustrator 22.0.1, SVG Export Plug-In . SVG Version: 6.00 Build 0)  -->
<svg version="1.1" id="Calque_1" xmlns="http://www.w3.org/2000/svg" xmlns:xlink="http://www.w3.org/1999/xlink" x="0px" y="0px"
	 viewBox="0 0 30 30" style="enable-background:new 0 0 30 30;" xml:space="preserve">
<style type="text/css">
	.st0{fill:#070809;}
</style>
<path class="st0" d="M20.6,19.1c0-0.7,0.3-1.3,0.6-1.9c0.3-0.6,0.7-1.1,1.1-1.6c-7.4,0-14.8,0-22.3,0c0-0.4,0-0.9,0-1.3
	c7.4,0,14.7,0,22.1,0c0,0,0.1,0,0.1,0c-0.8-1-1.6-2-1.6-3.3c2.8,2.2,6.1,3.1,9.4,4.1c-0.6,0.2-1.1,0.3-1.6,0.4
	c-2.3,0.6-4.5,1.5-6.6,2.8C21.4,18.4,21,18.7,20.6,19.1C20.6,19.1,20.6,19.1,20.6,19.1z"/>
</svg>
