<?xml version="1.0" encoding="utf-8"?>
<!-- Generator: Adobe Illustrator 22.0.1, SVG Export Plug-In . SVG Version: 6.00 Build 0)  -->
<svg version="1.1" id="Calque_1" xmlns="http://www.w3.org/2000/svg" xmlns:xlink="http://www.w3.org/1999/xlink" x="0px" y="0px"
	 viewBox="0 0 200 200" style="enable-background:new 0 0 200 200;" xml:space="preserve">
<style type="text/css">
	.st0{fill:#BD1352;}
</style>
<g>
	<polygon class="st0" points="83.6,97.8 102.8,65.8 86,65.8 66.8,97.8 	"/>
	<polygon class="st0" points="105.3,97.8 124.3,65.8 107.5,65.8 88.5,97.8 	"/>
	<polygon class="st0" points="128.6,97.8 147.6,65.8 130.8,65.8 111.8,97.8 	"/>
	<path class="st0" d="M100,7.3C48.8,7.3,7.3,48.8,7.3,100s41.5,92.7,92.7,92.7c51.2,0,92.7-41.5,92.7-92.7S151.2,7.3,100,7.3z
		 M150.4,146c-0.6,0.6-1.6,1-2.4,1h-21.3c-1,0-1.8-0.4-2.4-1c-0.8-0.6-1.2-1.4-1.2-2.4c0-1,0.4-1.8,1.2-2.4c0.6-0.6,1.4-1,2.4-1h7.7
		v-12.8H66.6v12.8h6.7c1,0,1.8,0.4,2.6,1c0.6,0.6,1,1.4,1,2.4c0,1-0.4,1.8-1,2.4c-0.8,0.6-1.6,1-2.6,1H52.2c-1,0-2-0.4-2.6-1
		c-0.6-0.6-1-1.4-1-2.4c0-1,0.4-1.8,1-2.4c0.6-0.6,1.6-1,2.6-1h7.1V101h-8.9h-1.6v-1.6V64.1v-1.6h1.6h99.3h1.6v1.6v35.2v1.6h-1.6
		h-7.9v39.1h6.3c0.8,0,1.8,0.4,2.4,1c0.6,0.6,1,1.4,1,2.4C151.5,144.6,151,145.4,150.4,146z"/>
	<rect x="66.6" y="101" class="st0" width="67.9" height="19.4"/>
	<polygon class="st0" points="61.7,65.8 52,82.2 52,97.8 59.3,97.8 78.5,65.8 	"/>
</g>
</svg>
