<?xml version="1.0" encoding="utf-8"?>
<!-- Generator: Adobe Illustrator 22.0.1, SVG Export Plug-In . SVG Version: 6.00 Build 0)  -->
<svg version="1.1" id="Calque_1" xmlns="http://www.w3.org/2000/svg" xmlns:xlink="http://www.w3.org/1999/xlink" x="0px" y="0px"
	 viewBox="0 0 200 200" style="enable-background:new 0 0 200 200;" xml:space="preserve">
<style type="text/css">
	.st0{fill:#BD1352;}
</style>
<path class="st0" d="M100.2,6.3C49,6.3,7.5,47.8,7.5,99c0,51.2,41.5,92.7,92.7,92.7c51.2,0,92.7-41.5,92.7-92.7
	C192.9,47.8,151.4,6.3,100.2,6.3z M34.5,143.2c7.5-14.5,29.4-25.5,56.2-27.6c-12-4-20.6-15.3-20.6-28.6c0-16.7,13.5-30.1,30.1-30.1
	c16.7,0,30.1,13.5,30.1,30.1c0,13.3-8.7,24.6-20.6,28.6c26.8,2.1,48.6,13.1,56.2,27.6H34.5z"/>
</svg>
