<?xml version="1.0" encoding="utf-8"?>
<!-- Generator: Adobe Illustrator 22.0.1, SVG Export Plug-In . SVG Version: 6.00 Build 0)  -->
<svg version="1.1" id="Calque_1" xmlns="http://www.w3.org/2000/svg" xmlns:xlink="http://www.w3.org/1999/xlink" x="0px" y="0px"
	 viewBox="0 0 200 200" style="enable-background:new 0 0 200 200;" xml:space="preserve">
<style type="text/css">
	.st0{fill:#BD1352;}
</style>
<path class="st0" d="M100,7.3C48.8,7.3,7.3,48.8,7.3,100c0,51.2,41.5,92.7,92.7,92.7s92.7-41.5,92.7-92.7
	C192.7,48.8,151.2,7.3,100,7.3z M114.2,157.8c-16.6,0-31.8-6.8-41.2-19.3c-4.6-5.7-7.9-13-9.5-22h-11v-12h9.3c0-0.8,0-1.9,0-2.9
	c0-1.7,0.2-3.4,0.2-5.1h-9.5v-12h11.3C66,75.5,70,67.7,75.5,61.5c9.6-10.8,23.2-17.2,39-17.2c10.3,0,19.3,2.4,25.4,5.1l-4.7,19.3
	c-4.4-1.9-11.3-4.1-18.8-4.1c-8.1,0-15.5,2.7-20.8,9.1c-2.4,2.7-4.2,6.6-5.4,11h42.1v12H87.6c-0.2,1.7-0.2,3.5-0.2,5.2
	c0,1,0,1.7,0,2.7h44.8v12H89.8c1.2,5.1,3,9,5.6,11.8c5.4,6.1,13.4,8.6,21.8,8.6c7.8,0,15.7-2.5,19.3-4.4l4.1,18.8
	C134.8,154.6,125,157.8,114.2,157.8z"/>
</svg>
