<?xml version="1.0" encoding="utf-8"?>
<!-- Generator: Adobe Illustrator 22.0.1, SVG Export Plug-In . SVG Version: 6.00 Build 0)  -->
<svg version="1.1" id="Calque_1" xmlns="http://www.w3.org/2000/svg" xmlns:xlink="http://www.w3.org/1999/xlink" x="0px" y="0px"
	 viewBox="0 0 200 200" style="enable-background:new 0 0 200 200;" xml:space="preserve">
<style type="text/css">
	.st0{fill:#BD1352;}
</style>
<path class="st0" d="M100,7.3C48.8,7.3,7.3,48.8,7.3,100c0,51.2,41.5,92.7,92.7,92.7c51.2,0,92.7-41.5,92.7-92.7
	C192.7,48.8,151.2,7.3,100,7.3z M83.8,129.6l-19.5-9.7l-19,10.6l3.2-21.5L32.5,94.1L54,90.5l9.2-19.8L73.2,90l21.6,2.6l-15.2,15.6
	L83.8,129.6z M156.5,129.6l-19.5-9.7l-19,10.6l3.2-21.5l-15.9-14.8l21.5-3.6l9.2-19.8L145.9,90l21.6,2.6l-15.2,15.6L156.5,129.6z"/>
</svg>
