<?xml version="1.0" encoding="utf-8"?>
<!-- Generator: Adobe Illustrator 22.0.1, SVG Export Plug-In . SVG Version: 6.00 Build 0)  -->
<svg version="1.1" id="logo_xA0_Image_1_" xmlns="http://www.w3.org/2000/svg" xmlns:xlink="http://www.w3.org/1999/xlink" x="0px"
	 y="0px" viewBox="0 0 150 150" style="enable-background:new 0 0 150 150;" xml:space="preserve">
<style type="text/css">
	.st0{fill:#E9610F;}
	.st1{fill:none;stroke:#BD0650;stroke-width:0.3687;stroke-miterlimit:10;}
	.st2{fill:#BD0650;}
	.st3{fill:#FCC300;}
</style>
<g>
	<path class="st0" d="M21.3,40.6c-24.2,27-21.9,68.5,5.1,92.7s68.5,21.9,92.7-5.1S141,59.6,114,35.4S45.5,13.6,21.3,40.6z
		 M115,124.6c-23,25.7-62.5,27.9-88.2,4.9S-1.1,67,21.9,41.3s62.5-27.9,88.2-4.9S138,98.9,115,124.6z"/>
	<circle class="st1" cx="76.4" cy="72.3" r="72.3"/>
	<path class="st2" d="M67,11.4c-36.3,0-65.7,29.4-65.7,65.7s29.4,65.7,65.7,65.7s65.7-29.4,65.7-65.7S103.2,11.4,67,11.4z
		 M66.8,137.3c-34.5,0-62.5-28-62.5-62.5s28-62.5,62.5-62.5s62.5,28,62.5,62.5S101.3,137.3,66.8,137.3z"/>
	<circle class="st3" cx="68.6" cy="75.5" r="55"/>
</g>
</svg>
