<?xml version="1.0" encoding="utf-8"?>
<!-- Generator: Adobe Illustrator 22.0.1, SVG Export Plug-In . SVG Version: 6.00 Build 0)  -->
<svg version="1.1" id="Calque_1" xmlns="http://www.w3.org/2000/svg" xmlns:xlink="http://www.w3.org/1999/xlink" x="0px" y="0px"
	 viewBox="0 0 30 30" style="enable-background:new 0 0 30 30;" xml:space="preserve">
<g>
	<path d="M15,29.5C7,29.5,0.5,23,0.5,15S7,0.5,15,0.5C23,0.5,29.5,7,29.5,15S23,29.5,15,29.5z M15,1.5C7.5,1.5,1.5,7.5,1.5,15
		c0,7.5,6.1,13.5,13.5,13.5S28.5,22.5,28.5,15C28.5,7.5,22.5,1.5,15,1.5z"/>
	<path d="M15,30C6.7,30,0,23.3,0,15C0,6.7,6.7,0,15,0s15,6.7,15,15C30,23.3,23.3,30,15,30z M1,15c0,7.7,6.3,14,14,14s14-6.3,14-14
		c0,7.7-6.3,14-14,14S1,22.7,1,15z M15,1.9C7.8,1.9,1.9,7.8,1.9,15S7.8,28.1,15,28.1c7.2,0,13.1-5.9,13.1-13.1S22.2,1.9,15,1.9z"/>
</g>
<g>
	<polygon points="11.5,21.2 11.5,18.4 16,15 11.5,11.6 11.5,8.8 18.5,14.2 18.5,15.8 	"/>
</g>
</svg>
