<?xml version="1.0" encoding="utf-8"?>
<!-- Generator: Adobe Illustrator 22.0.1, SVG Export Plug-In . SVG Version: 6.00 Build 0)  -->
<svg version="1.1" id="Calque_1" xmlns="http://www.w3.org/2000/svg" xmlns:xlink="http://www.w3.org/1999/xlink" x="0px" y="0px"
	 viewBox="0 0 30 30" style="enable-background:new 0 0 30 30;" xml:space="preserve">
<style type="text/css">
	.st0{fill:#FFFFFF;}
	.st1{fill:#BD1352;}
</style>
<g>
	<circle class="st0" cx="15" cy="15" r="14.5"/>
	<path class="st1" d="M15,30C6.7,30,0,23.3,0,15S6.7,0,15,0s15,6.7,15,15S23.3,30,15,30z M15,1C7.3,1,1,7.3,1,15c0,7.7,6.3,14,14,14
		c7.7,0,14-6.3,14-14C29,7.3,22.7,1,15,1z"/>
</g>
<g>
	<polygon class="st1" points="11.5,21.2 11.5,18.4 16,15 11.5,11.6 11.5,8.8 18.5,14.2 18.5,15.8 	"/>
</g>
</svg>
