<?xml version="1.0" encoding="utf-8"?>
<!-- Generator: Adobe Illustrator 22.0.1, SVG Export Plug-In . SVG Version: 6.00 Build 0)  -->
<svg version="1.1" id="Calque_1" xmlns="http://www.w3.org/2000/svg" xmlns:xlink="http://www.w3.org/1999/xlink" x="0px" y="0px"
	 viewBox="0 0 146.8 146.8" style="enable-background:new 0 0 146.8 146.8;" xml:space="preserve">
<path id="_x31_" d="M124.2,19.4L124.2,19.4c0,2.6-2.1,4.6-4.6,4.6H27.2c-2.6,0-4.6-2.1-4.6-4.6v0c0-2.6,2.1-4.6,4.6-4.6h92.4
	C122.2,14.7,124.2,16.8,124.2,19.4z M62,12.5h22.7c3.4,0,6.2-2.8,6.2-6.2C91,2.9,88.2,0,84.7,0H62c-3.4,0-6.2,2.8-6.2,6.2
	C55.8,9.7,58.6,12.5,62,12.5z M67,87.1l-0.5-0.7l-0.2,1l-0.1,0.4c0,0-0.3,1.3-0.4,2l-8.1-0.4c-0.4,0-0.4,0-0.9,0
	c0,0-0.5,0.9-0.7,1.3L53.3,96l3.1,5.5c0,0,1.7,1.6,4,1.8c2.3,0.1,5.6,0,5.6,0l0.5,3l8.2-9.4L67,87.1L67,87.1z M72.9,69.7l-2.7,0.4
	l-0.6,0.1c-0.2,0-0.2,0-0.3,0L58.7,72L58,72.2l0,0l5.8,3.5l-6.5,12.6l7.5,0.4l1.1-4.6l1.7,2.1l0.4,0.5c0.1,0.2,0.1,0.2,0.2,0.2
	l6.8,8.3l0.2-6.3l14.1-0.7L86,81.6l-4.6,1.3l1-2.6l0.2-0.6c0.1-0.2,0.1-0.2,0.1-0.3l3.8-10.1l0.1-0.3L81.2,72l-7.7-11.9l-4.1,6.3
	L72.9,69.7z M62.6,52.8c0,0-2.3,0.7-3.6,2.6c-1.3,1.9-2.8,4.9-2.8,4.9l-2.8-1.1l4,11.9l12.3-1.8v0l0.9-0.1l-0.7-0.7l-0.3-0.3
	c0,0-1-0.9-1.5-1.4l4.4-6.8c0.2-0.3,0.2-0.4,0.5-0.7c0,0-0.5-0.9-0.8-1.3l-3.3-5.1L62.6,52.8z M83.4,80.5l-0.3,0.8l0.9-0.4l0.4-0.1
	c0,0,1.2-0.4,2-0.6l3.7,7.2c0.2,0.3,0.2,0.4,0.4,0.8c0,0,1,0,1.5,0l6.1-0.3l3.1-5.5c0,0,0.5-2.3-0.5-4.4c-1-2.1-2.8-4.9-2.8-4.9
	l2.4-1.9L88,68.8L83.4,80.5L83.4,80.5z M73.1,26.5h48.2l-22,120.3H73.1H73H46.7l-22-120.3H73H73.1z M81.4,51.7l-9.5,0.1
	c-0.3,0-1.1,0-1.4,0l-2.3,0l-5.9-0.1c0,0-2.4,0.6-3.9,2.8c-1.5,2.2-2.8,4.6-2.8,4.6l-4-1.6l4.3,12.8l0.3,0.7l0,0l-5-3.1
	c0,0-4.7,8.4-6.2,11c-0.1,0.2-0.2,0.4-0.3,0.7c-0.1,0.2-0.1,0.3-0.2,0.7c-0.5,2,0.4,3.4,0.4,3.4l0.8,1.3c0.1,0.2,0.3,0.5,0.5,0.8
	l4.8,8.2c0.1,0.2,0.5,0.9,0.7,1.2l1.2,2l2.8,5.1c0,0,1.7,1.8,4.4,2c2.6,0.2,5.4,0.1,5.4,0.1l0.6,4.3l9-10.2l0,0l-0.1,5.3
	c0,0,9.6-0.1,12.6-0.2c0.3,0,0.5,0,0.7-0.1c0.2,0,0.4-0.1,0.7-0.1c2-0.6,2.7-2.1,2.7-2.1l0.8-1.3c0.1-0.2,0.3-0.5,0.4-0.8l4.7-8.3
	c0.1-0.2,0.5-0.9,0.7-1.2l1.1-2l3-5c0,0,0.7-2.4-0.5-4.8c-1.2-2.4-2.6-4.7-2.6-4.7l3.4-2.7l-13.3-2.7l-0.3-0.1l0.1,0l5.1-2.8
	c0,0-4.9-8.3-6.5-10.9c-0.1-0.2-0.3-0.4-0.4-0.6c-0.1-0.2-0.2-0.3-0.5-0.5c-1.5-1.4-3.1-1.3-3.1-1.3l-1.5,0
	C82.1,51.7,81.7,51.7,81.4,51.7z"/>
</svg>
