<?xml version="1.0" encoding="utf-8"?>
<!-- Generator: Adobe Illustrator 22.0.1, SVG Export Plug-In . SVG Version: 6.00 Build 0)  -->
<svg version="1.1" id="Calque_1" xmlns="http://www.w3.org/2000/svg" xmlns:xlink="http://www.w3.org/1999/xlink" x="0px" y="0px"
	 viewBox="0 0 146.8 146.8" style="enable-background:new 0 0 146.8 146.8;" xml:space="preserve">
<path id="_x35_" d="M65.6,62.5c0.4,0.3,0.8,0.5,1.3,0.8c0.4,0.2,0.9,0.4,1.3,0.6c1.8,0.8,3.8,1.2,5.9,1.2c2.1,0,4.1-0.4,5.9-1.2
	c0.5-0.2,0.9-0.4,1.3-0.6c0.4-0.2,0.8-0.5,1.3-0.8c4-2.7,6.7-7.4,6.7-12.6s-2.7-9.9-6.7-12.6c-0.4-0.3-0.8-0.5-1.3-0.8
	c-0.4-0.2-0.9-0.4-1.3-0.6c-1.8-0.8-3.8-1.2-5.9-1.2c-2.1,0-4.1,0.4-5.9,1.2c-0.5,0.2-0.9,0.4-1.3,0.6c-0.4,0.2-0.8,0.5-1.3,0.8
	c-4,2.7-6.7,7.4-6.7,12.6S61.6,59.8,65.6,62.5z M74.1,62.6c-2.4,0-4.6-0.6-6.5-1.8l3.7-7c0.8,0.6,1.8,0.9,2.8,0.9
	c0.8,0,1.6-0.2,2.3-0.6l4.1,6.7C78.7,62,76.5,62.6,74.1,62.6z M80.2,38.6c4,2.2,6.7,6.4,6.7,11.2c0,0,0,0,0,0.1H79c0,0,0,0,0-0.1
	c0-1.9-1-3.5-2.6-4.3L80.2,38.6z M74.1,46.5c1.9,0,3.4,1.5,3.4,3.4c0,1.9-1.5,3.4-3.4,3.4s-3.4-1.5-3.4-3.4
	C70.7,48,72.2,46.5,74.1,46.5z M61.3,49.9c0-4.7,2.5-8.8,6.3-11l4,6.8c-1.5,0.9-2.4,2.4-2.4,4.2c0,0,0,0,0,0.1L61.3,49.9
	C61.3,49.9,61.3,49.9,61.3,49.9z M34.9,26.5v120.2h76.9V26.5H34.9z M74.1,32.9c9.4,0,17,7.6,17,17s-7.6,17-17,17
	c-9.4,0-17-7.6-17-17S64.7,32.9,74.1,32.9z M102.2,115.6H79.8v-3.7h22.5V115.6z M102.2,110.6H79.8v-3.7h22.5V110.6z M102.2,99.5
	H44.5v-3.7h57.7V99.5z M102.2,91.9H44.5v-3.7h57.7V91.9z M102.2,84.1H44.5v-3.7h57.7V84.1z"/>
</svg>
