<?xml version="1.0" encoding="utf-8"?>
<!-- Generator: Adobe Illustrator 22.0.1, SVG Export Plug-In . SVG Version: 6.00 Build 0)  -->
<svg version="1.1" id="Calque_1" xmlns="http://www.w3.org/2000/svg" xmlns:xlink="http://www.w3.org/1999/xlink" x="0px" y="0px"
	 viewBox="0 0 146.8 146.8" style="enable-background:new 0 0 146.8 146.8;" xml:space="preserve">
<path id="_x34_" d="M111.3,74.4H93.7c-2.1,5.7-8.9,9.8-17.1,9.8s-15.1-4.2-17.1-9.8h-2.7v15.4h0.9c1.4,0,2.6,1.2,2.6,2.6
	c0,1.4-1.2,2.6-2.6,2.6H40.2c-1.4,0-2.6-1.2-2.6-2.6c0-1.4,1.2-2.6,2.6-2.6h1.5v-9.2c0-2.3,0.7-4.4,1.8-6.2h-1.8
	c0-9.5,7.7-17.2,17.2-17.2h5.3c0.6-1.3,1.7-2.4,3.1-3.4h-3.6v-6.4h5.8v-3.8c0-3.1,2-5.7,4.8-6.6v-5h-8.4c-0.6,1.2-1.8,2-3.2,2
	c-2,0-3.6-1.6-3.6-3.6c0-2,1.6-3.6,3.6-3.6c1.4,0,2.6,0.8,3.2,2h22.4c0.6-1.2,1.8-2,3.2-2c2,0,3.6,1.6,3.6,3.6c0,2-1.6,3.6-3.6,3.6
	c-1.4,0-2.6-0.8-3.2-2h-9.2v5.1c2.6,1,4.4,3.6,4.4,6.5v3.8H89v6.4h-3.3c1.4,0.9,2.5,2.1,3.1,3.4h22.5V74.4z M62.3,132.5
	c0,4.5-1.9,7.9-4.2,10.3c-2.5,2.6-5.9,3.9-9.2,4c-3.4,0-6.7-1.3-9.2-4c-2.3-2.4-4.2-5.8-4.2-10.3c0-11.9,12.8-30.3,12.8-30.3
	l0.6-0.8l0.6,0.8C49.5,102.2,62.3,120.6,62.3,132.5z M53.5,141.2c0,0-12-2.7-11.8-19.8C41.7,121.4,37.1,141.8,53.5,141.2z"/>
</svg>
