<?xml version="1.0" encoding="utf-8"?>
<!-- Generator: Adobe Illustrator 22.0.1, SVG Export Plug-In . SVG Version: 6.00 Build 0)  -->
<svg version="1.1" id="Calque_1" xmlns="http://www.w3.org/2000/svg" xmlns:xlink="http://www.w3.org/1999/xlink" x="0px" y="0px"
	 viewBox="0 0 146.8 146.8" style="enable-background:new 0 0 146.8 146.8;" xml:space="preserve">
<path id="_x33_" d="M40.8,104.9c2.1-5.2,3.7-8.4,0.5-15.2C38,82.9,30.7,74.2,25.3,72.6c-2.1,5.2,0.1,16.3,3.4,23.1
	C31.9,102.5,35.4,103.3,40.8,104.9z M3.1,113c4.3,3.7,15.6,5,23,4c7.5-1,9.3-4,12.5-8.6c-4.3-3.7-6.8-6.1-14.3-5.2
	C16.9,104.2,6.3,108.4,3.1,113z M32,123.5c-1.4,7.4-0.8,18.8,2.6,23.2c4.8-2.9,9.6-13.2,11.1-20.6c1.4-7.4-0.9-10.1-4.3-14.6
	C36.5,114.5,33.4,116.1,32,123.5z M45.2,110c1.2,5.5,1.8,9,8.4,12.6c6.6,3.7,17.6,6.6,22.9,4.8c-1.2-5.5-9.5-13.3-16.1-16.9
	C53.8,106.8,50.5,108.2,45.2,110z M59.5,101.8c5.5-5.1,11.8-14.6,11.7-20.2c-5.6-0.5-15.6,4.9-21.1,10c-5.5,5.1-5.3,8.6-5.2,14.2
	C50.5,106.4,54,106.9,59.5,101.8z M107.7,66.4l-8.6,22.3c-0.1,0.2-0.1,0.2-0.2,0.6l-0.5,1.3l-2.2,5.7l10.2-2.8l7.5,14.8l-31.5,1.3
	l-0.5,15.1l-0.1,2.6l-0.1,2.3l-0.4,13c0,0,21.4,0,28.1-0.2c0.6,0,1.1-0.1,1.6-0.1c0.5-0.1,0.8-0.1,1.5-0.3c4.4-1.2,6.1-4.5,6.1-4.5
	l1.7-2.9c0.2-0.4,0.7-1.2,1-1.7l10.5-18.3c0.3-0.5,1.2-2,1.5-2.7l2.6-4.5l6.8-11.1c0,0,1.6-5.4-1-10.7c-2.6-5.3-5.7-10.6-5.7-10.6
	l7.6-5.9L114.1,63l-4.9-0.9L107.7,66.4z M138.3,70.7l-5.3,4.2c0,0,4,6.2,6.2,10.8c2.2,4.6,1,9.8,1,9.8l-7.1,12.1l-13.5,0.6
	c-1,0.1-3.3,0.1-3.3,0.1c-0.4-0.9-0.5-1-0.9-1.8l-8-16.1c-1.6,0.5-4.4,1.4-4.4,1.4L102,92l-2.1,0.6l0.8-1.9h0L111,65.1L138.3,70.7z
	 M45.8,71.8l23.6-3.7c0.2,0,0.2,0,0.7-0.1l1.4-0.2l6-0.9L70,59.5l9.1-13.9L96,72.2l13.3-7.1l2.3-1.2l2.1-1.1l11.5-6.1
	c0,0-10.7-18.5-14.2-24.3c-0.3-0.5-0.6-0.9-0.9-1.3c-0.3-0.4-0.5-0.6-1-1.1c-3.3-3.2-7-3-7-3l-3.4,0c-0.5,0-1.4,0-2,0l-21.1,0
	c-0.6,0-2.4,0-3.1,0l-5.1,0l-13-0.4c0,0-5.4,1.3-8.7,6.2c-3.3,4.9-6.3,10.3-6.3,10.3l-8.9-3.6L39.7,68l1.6,4.7L45.8,71.8z
	 M34.3,43.2l6.2,2.5c0,0,3.4-6.6,6.3-10.8c2.9-4.2,8-5.7,8-5.7l14,0.1L76,40.7c0.6,0.8,1.7,2.9,1.7,2.9c-0.5,0.8-0.6,1-1.1,1.6
	l-10,15c1.3,1.2,3.4,3.1,3.4,3.1l0.7,0.7l1.6,1.5l-2,0.3v0L43,69.6L34.3,43.2z"/>
</svg>
