<?xml version="1.0" encoding="utf-8"?>
<!-- Generator: Adobe Illustrator 22.0.1, SVG Export Plug-In . SVG Version: 6.00 Build 0)  -->
<svg version="1.1" id="Calque_1" xmlns="http://www.w3.org/2000/svg" xmlns:xlink="http://www.w3.org/1999/xlink" x="0px" y="0px"
	 viewBox="0 0 146.8 146.8" style="enable-background:new 0 0 146.8 146.8;" xml:space="preserve">
<path id="_x32__1_" d="M73.4,103.5c-2.2,0-3.9,1.8-3.9,3.9c0,2.2,1.8,3.9,3.9,3.9c2.2,0,3.9-1.8,3.9-3.9
	C77.3,105.3,75.5,103.5,73.4,103.5L73.4,103.5z M73.4,103.5 M73.4,40.2L13.1,146.8h120.5L73.4,40.2z M73.4,130.1
	c-5.2,0-10-1.8-13.7-4.8l8.6-11.1c-2-1.5-3.3-3.9-3.4-6.6l-13.7-0.1c0.2-8.6,5.2-16,12.5-19.5l5.9,11.9c1.1-0.6,2.4-0.9,3.7-0.9
	c1.3,0,2.6,0.3,3.7,0.9L83,87.9c7.3,3.5,12.4,10.9,12.5,19.5l-13.7,0.1c0,2.7-1.4,5.1-3.4,6.6l8.6,11.1
	C83.3,128.3,78.6,130.1,73.4,130.1L73.4,130.1z M73.4,130.1"/>
</svg>
