<?xml version="1.0" encoding="utf-8"?>
<!-- Generator: Adobe Illustrator 22.0.1, SVG Export Plug-In . SVG Version: 6.00 Build 0)  -->
<svg version="1.1" id="Calque_1" xmlns="http://www.w3.org/2000/svg" xmlns:xlink="http://www.w3.org/1999/xlink" x="0px" y="0px"
	 viewBox="0 0 200 200" style="enable-background:new 0 0 200 200;" xml:space="preserve">
<path d="M145.7,53.9c3.4,0,6.6-0.9,9.5-2.6l27.3-16.1v-7.5l-30.7,17.9c-2.3,1.4-5,2.1-7.7,2l-40.7-0.5c-2-0.7-3.7-1.2-4.3-1.5
	c-12.7-2.8-22.7-1.7-29.5,0.1c-5.1,1.4-10.5,0.8-15.3-1.4L17.5,27.5V95l3.8,2.1c5.7,3.1,10.2,7.8,13,13.6l-2.2,1.8
	c-5.8,4.2-7.1,12.4-3.2,18.2c2.1,2.8,5.1,4.6,8.6,5.2c0.4,0,1,0.1,1.5,0.1c1.3,0.1,2.5-0.1,3.5-0.2c0.1,2.9,0.7,5.4,2.5,7.8
	c2.3,3.2,6,4.7,9.9,4.9c1,0.1,2.1,0.1,2.9,0.2c-0.4,3.1,0.5,6.2,2.4,8.8c2.1,2.8,5.1,4.6,8.6,5.2c0.4,0,1,0.1,1.5,0.1
	c3.1,0.2,6-0.7,8.4-2.4l1.3-1c0.3,1.9,0.8,3.5,2,5.1c1.7,2.4,4.3,4,7.4,4.5c0.4,0,0.8,0,1.3,0.1c2.5,0.1,5-0.6,7.1-2.1h0.2l1.5,2.1
	c2.7,3.9,8.2,4.8,12.1,2.1c3.2-2.3,4.5-6.8,3-10.4l0.3,0.4c2.5,3.8,7.3,5.4,11.5,3.7c4.6-1.9,6.5-6.9,5.3-11.2
	c3.1,3.5,8.5,4.2,12.3,1.5l0.2-0.2c3.9-2.7,5-7.8,2.9-11.8c3.4,3.1,8.7,3.5,12.6,0.9c4.5-3.3,5.7-9.6,2.4-14.1l-4.8-6.9l10.5-12.2
	c2.7-3.2,6-5.9,9.7-8l5.1-3v-8l-7.1,4c-4.1,2.3-7.7,5.3-10.8,8.8l-11.2,13c-3.4-3.1-8.7-3.5-12.6-0.9c-4.5,3.3-5.7,9.6-2.4,14.1
	l0.2,0.4h-0.2c-3.2-2.2-7.5-2.5-10.9-0.2l-0.2,0.2c-3,2.1-4.4,5.7-3.8,9.3l-1.1,0.8c-3-1.6-6.7-1.6-9.7,0.5c-2.8,1.9-4.2,5.3-4,8.4
	l-3,1.9c-2.2-0.5-4.7,0-6.7,1.3c-2.4,1.7-3.8,4.6-3.7,7.2l-1.5,0.9c-0.9,0.8-2.3,1.1-3.6,0.8c-1.2-0.3-2.4-0.9-3.2-2
	c-0.8-0.9-1.1-2.3-0.8-3.5c0.3-1.2,0.9-2.4,2-3.2l16.1-12.1c0.8-0.6,1.3-1.4,1.4-2.4c0.1-1.9-1.5-3.4-3.3-3.4
	c-0.7,0-1.3,0.2-1.9,0.5l-25.8,18.7c-1.5,0.9-3.2,1.5-5,1.2c-1.8-0.3-3.5-1.2-4.4-2.7c-2.1-2.8-1.5-7.1,1.5-9.2l30.7-21.9
	c0.7-0.6,1.2-1.5,1.2-2.6c0-1.8-1.4-3.2-3.2-3.3c-1,0-1.8,0.3-2.5,1.1L63,139.1c-0.8,0.4-1.3,1-1.9,1.6c-3.6,2.3-9,1.8-10.9-0.8
	c-1.9-2.8-1.5-6.5,0.9-8.8l3-2.1l33.4-22.8c0.8-0.6,1.3-1.4,1.4-2.4c0.1-1.1-0.5-2.2-1.4-2.8c-1.2-0.8-2.4-0.9-3.6-0.1L48,125.2
	c-0.2,0.4-0.6,0.6-0.9,0.8l-3.5,2.5c-2.8,2.1-7.1,1.5-9.2-1.5c-2.1-2.8-1.5-7.1,1.5-9.2l67.5-49.7c5.4,3.2,9.4,9.6,9.4,9.6
	c6.6,20.8,14.9,20.9,19.9,18.4c2.6-1.3,3.8-4.4,2.9-7.1c-2.6-8-4.2-23.5-4.2-23.5c-1.9-4-7.8-8.2-14.5-11.7l21.7,0.3L145.7,53.9z
	 M145.7,53.9"/>
</svg>
