<?xml version="1.0" encoding="utf-8"?>
<!-- Generator: Adobe Illustrator 22.0.1, SVG Export Plug-In . SVG Version: 6.00 Build 0)  -->
<svg version="1.1" id="Calque_1" xmlns="http://www.w3.org/2000/svg" xmlns:xlink="http://www.w3.org/1999/xlink" x="0px" y="0px"
	 viewBox="0 0 200 200" style="enable-background:new 0 0 200 200;" xml:space="preserve">
<path d="M130.5,172.2H69.6c0-6.8,5.5-12.3,12.2-12.3h11.3V56.3H45.6l20.1,32c1,1.6,0.5,3.8-1.1,4.8c-1.6,1-3.8,0.5-4.8-1.1
	L42.4,64.3L24.9,92.1c-0.7,1-1.8,1.6-2.9,1.6c-0.6,0-1.3-0.2-1.8-0.5c-1.6-1-2.1-3.2-1.1-4.8l20.1-32h-0.3c-3,0-5.4-2.4-5.4-5.4
	s2.4-5.4,5.4-5.4h39.5c2.2-3.3,5.5-5.7,9.4-6.9c0.6-6.3,5.8-11.2,12.2-11.2s11.6,4.9,12.2,11.2c3.9,1.2,7.2,3.6,9.4,6.9h39.5
	c3,0,5.4,2.4,5.4,5.4s-2.4,5.4-5.4,5.4h-0.3l20.1,32c1,1.6,0.5,3.8-1.1,4.8c-1.6,1-3.8,0.5-4.8-1.1l-17.5-27.8l-17.5,27.8
	c-0.7,1-1.8,1.6-2.9,1.6c-0.6,0-1.3-0.2-1.8-0.5c-1.6-1-2.1-3.2-1.1-4.8l20.1-32H107V160h11.3C125,160,130.5,165.5,130.5,172.2z
	 M67.9,97.4h-51c-1,0-1.8,0.8-1.8,1.9c0,15.1,12.3,27.4,27.4,27.4c15.1,0,27.4-12.3,27.4-27.4C69.7,98.2,68.9,97.4,67.9,97.4z
	 M183.2,97.4h-51c-1,0-1.8,0.8-1.8,1.9c0,15.1,12.3,27.4,27.4,27.4c15.1,0,27.4-12.3,27.4-27.4C185,98.2,184.2,97.4,183.2,97.4z"/>
</svg>
