<?xml version="1.0" encoding="utf-8"?>
<!-- Generator: Adobe Illustrator 22.0.1, SVG Export Plug-In . SVG Version: 6.00 Build 0)  -->
<svg version="1.1" id="Calque_1" xmlns="http://www.w3.org/2000/svg" xmlns:xlink="http://www.w3.org/1999/xlink" x="0px" y="0px"
	 viewBox="0 0 200 200" style="enable-background:new 0 0 200 200;" xml:space="preserve">
<style type="text/css">
	.st0{fill:#010202;}
</style>
<path class="st0" d="M113.6,172.5H86.4c0,0,16.5-87.6-13.5-106.2C61,71.2,49.2,64.5,45.7,55.9c-3.2-7.6-5.1-7.6-5.6-7.4
	c22.8-10.3,31.2,9,33.3,15.4c7.9,2.6,18,10.4,22.4,32.5c0,0,10-36.2,35.8-49.8c0.4-3.3,4.1-24.5,26.2-17.7c-0.4-0.1-2,0.1-3.8,6.8
	c-1.8,6.8-9.3,13-18.5,12.2C124.7,60.1,100.3,97.4,113.6,172.5z M45.9,86c0.7-0.1,3.5,0.4,6,12.2c2.8,13.6,18.7,26.8,38,21.8
	C89.9,120.1,88.4,75.5,45.9,86z M45.9,86c-0.1,0-0.2,0-0.2,0C45.8,86.1,45.9,86.1,45.9,86z M111.5,117.4
	c17.3,5.6,32.4-5.5,35.8-17.7c2.9-10.6,5.5-10.9,6.1-10.8C115.4,76.9,111.5,117.4,111.5,117.4z M153.4,88.9c0,0,0.1,0,0.1,0
	C153.6,88.9,153.5,88.9,153.4,88.9z M157.8,28.8C157.8,28.8,157.9,28.8,157.8,28.8C157.9,28.9,157.9,28.8,157.8,28.8z M123.7,71
	c10.8,7.8,24.1,3.4,29.3-4.4c4.6-6.9,6.4-6.4,6.8-6.2C136,43.4,123.7,71,123.7,71z M159.9,60.4C159.9,60.4,160,60.4,159.9,60.4
	C160,60.4,160,60.4,159.9,60.4z M40.1,48.5c-0.1,0-0.1,0-0.1,0C40,48.5,40.1,48.5,40.1,48.5z M95.4,34.4c-0.1,0-0.1,0-0.1,0
	C95.3,34.4,95.3,34.4,95.4,34.4z M106.1,70.4c0,0,17.2-25.4-10.7-36c0.4,0.2,1.8,1.5-1.6,9.1C89.8,52.2,93.3,65.7,106.1,70.4z"/>
</svg>
