<?xml version="1.0" encoding="utf-8"?>
<!-- Generator: Adobe Illustrator 22.0.1, SVG Export Plug-In . SVG Version: 6.00 Build 0)  -->
<svg version="1.1" id="Calque_1" xmlns="http://www.w3.org/2000/svg" xmlns:xlink="http://www.w3.org/1999/xlink" x="0px" y="0px"
	 viewBox="0 0 200 200" style="enable-background:new 0 0 200 200;" xml:space="preserve">
<path d="M140.1,107V163c0,0.8-0.5,1.9-1.8,1.9c-3.3,0.5-6.7,1.6-10.6,2.8c-7.3,2.2-16.5,4.8-31.1,4.8c-9.7,0-21.9-1.6-32.1-3.3
	l-26.8-2.7c-4.6-0.5-7.9-5.7-7.3-11.6c0.5-4.6,3.1-8.2,6.5-9.4l-3.4-0.3c-5.3-0.5-9.1-5.8-8.5-11.7c0.5-5.1,4.2-8.8,8.5-9.5
	l-1.4-0.1c-6-0.6-10.3-5.9-9.7-11.9c0.6-5.9,5.9-10.2,11.9-9.6l16.2,1.6l0.1-0.5l-12.8-1.3c-5.2-0.5-9-5.8-8.4-11.7
	c0.6-5.9,5.3-10.3,10.6-9.8l43,4.4l6.1,0.1c0,0-8.8-4-2-35.7c6.8-31.7,24.6-19.8,24.6-19.8s0.2,27.1,1.2,30.9
	c0.8,3.2,15.1,31,20.1,40.9c1.1,2.2,1.8,3.5,1.8,3.5C134.9,105.7,140.1,104.3,140.1,107z M171.8,168.8c3.1,0,5.7-2.5,5.7-5.7l0-59.3
	c0-3.1-2.5-5.7-5.7-5.7h-22.7c-3.1,0-5.7,2.5-5.7,5.7l0,59.3c0,3.1,2.5,5.7,5.7,5.7H171.8z"/>
</svg>
