<?xml version="1.0" encoding="utf-8"?>
<!-- Generator: Adobe Illustrator 22.0.1, SVG Export Plug-In . SVG Version: 6.00 Build 0)  -->
<svg version="1.1" id="Calque_1" xmlns="http://www.w3.org/2000/svg" xmlns:xlink="http://www.w3.org/1999/xlink" x="0px" y="0px"
	 viewBox="0 0 30 30" style="enable-background:new 0 0 30 30;" xml:space="preserve">
<style type="text/css">
	.st0{fill:#4B4B4D;}
</style>
<path class="st0" d="M5.2,30c0-4.1,0-8.3,0-12.4c0-0.2,0.1-0.4,0.2-0.5c3.2-3.2,6.3-6.3,9.5-9.5c0,0,0.1-0.1,0.1-0.1
	c0.5,0.5,1,1,1.5,1.5c2.7,2.7,5.4,5.4,8.1,8.1c0.1,0.1,0.2,0.2,0.2,0.4c0,4.1,0,8.3,0,12.4c-2.1,0-4.2,0-6.3,0c0-0.1,0-0.2,0-0.3
	c0-2.9,0-5.7,0-8.6c0-0.1,0-0.2,0-0.3c-2.3,0-4.6,0-6.9,0c0,0.1,0,0.2,0,0.3c0,2.9,0,5.7,0,8.6c0,0.1,0,0.2,0,0.3
	C9.4,30,7.3,30,5.2,30z"/>
<path class="st0" d="M15,0c1.7,1.7,3.4,3.4,5.1,5.1c2.6,2.6,5.2,5.2,7.7,7.7c0.7,0.7,1.3,1.3,2,2c0,0,0.1,0.1,0.1,0.1
	c-0.8,0.8-1.5,1.5-2.3,2.3c-4.2-4.2-8.4-8.4-12.6-12.6c-4.3,4.3-8.5,8.5-12.7,12.7c-0.5-0.5-1-1-1.5-1.5C0.6,15.6,0.3,15.3,0,15
	C0,15,0,15,0,15c0.1-0.1,0.1-0.1,0.2-0.2C0.6,14.4,1,14,1.5,13.5c4.3-4.3,8.6-8.6,12.9-12.9C14.6,0.4,14.8,0.2,15,0C15,0,15,0,15,0z
	"/>
<path class="st0" d="M20.2,0.6c1.2,0,2.3,0,3.4,0c0,1.7,0,3.4,0,5.2c-0.4-0.4-0.8-0.8-1.1-1.2c-0.7-0.7-1.4-1.4-2.2-2.2
	c-0.1-0.1-0.1-0.2-0.1-0.3C20.2,1.6,20.2,1.1,20.2,0.6z"/>
</svg>
