<?xml version="1.0" encoding="utf-8"?>
<!-- Generator: Adobe Illustrator 22.0.1, SVG Export Plug-In . SVG Version: 6.00 Build 0)  -->
<svg version="1.1" id="Layer_1" xmlns="http://www.w3.org/2000/svg" xmlns:xlink="http://www.w3.org/1999/xlink" x="0px" y="0px"
	 viewBox="0 0 30 30" style="enable-background:new 0 0 30 30;" xml:space="preserve">
<style type="text/css">
	.st0{fill:#3A3938;}
</style>
<path class="st0" d="M1.7,5.3l13.4,12.9L28.4,5.3c0,0,0.1-0.1,0.2-0.1c-0.6-0.5-1.4-0.8-2.3-0.8H3.7c-0.8,0-1.6,0.3-2.2,0.8
	C1.5,5.2,1.6,5.2,1.7,5.3z"/>
<path class="st0" d="M29.4,23c0.1,0.1,0.2,0.1,0.4,0.2c0.2-0.4,0.3-0.9,0.3-1.4V8.1c0-0.2,0-0.4-0.1-0.6l-8.2,7.9
	C25.1,18.8,28.6,22.4,29.4,23z"/>
<path class="st0" d="M19.9,17.2L16,20.9c-0.3,0.2-0.6,0.4-0.9,0.4c-0.3,0-0.6-0.1-0.9-0.4l-4-3.8L2,25.2c0.5,0.3,1.1,0.4,1.7,0.4
	h22.6c0.6,0,1.1-0.2,1.6-0.4C26.9,24.5,24.8,22.4,19.9,17.2z"/>
<path class="st0" d="M0.1,7.4C0,7.6,0,7.8,0,8.1v13.9c0,0.5,0.1,0.9,0.3,1.4l8.1-8L0.1,7.4z"/>
</svg>
