<?xml version="1.0" encoding="utf-8"?>
<!-- Generator: Adobe Illustrator 22.0.1, SVG Export Plug-In . SVG Version: 6.00 Build 0)  -->
<svg version="1.1" id="Calque_1" xmlns="http://www.w3.org/2000/svg" xmlns:xlink="http://www.w3.org/1999/xlink" x="0px" y="0px"
	 viewBox="0 0 30 30" style="enable-background:new 0 0 30 30;" xml:space="preserve">
<style type="text/css">
	.st0{fill-rule:evenodd;clip-rule:evenodd;fill:#BD1352;}
</style>
<path class="st0" d="M2.6,23.3L2.6,23.3h4.9c0.7,2.1,1.7,4.1,2.9,5.8c-2.3-0.7-4.4-2-6.1-3.6C3.7,24.8,3.1,24.1,2.6,23.3L2.6,23.3z
	 M4.4,4.5L4.4,4.5c1.7-1.7,3.8-3,6.1-3.7C9.3,2.5,8.3,4.5,7.5,6.6H2.6C3.1,5.9,3.7,5.1,4.4,4.5L4.4,4.5z M27.5,6.6L27.5,6.6h-5.4
	c-0.7-2.2-1.8-4.2-3-5.9c2.5,0.7,4.7,2,6.5,3.8C26.3,5.1,26.9,5.9,27.5,6.6L27.5,6.6z M23.5,14.4L23.5,14.4c0-2.4-0.4-4.6-1-6.7h5.7
	c1.1,2,1.8,4.3,1.9,6.7H23.5z M23.5,15.6L23.5,15.6H30c0,2.5-0.8,4.7-1.9,6.8v-0.1h-5.6C23.1,20.1,23.4,17.9,23.5,15.6L23.5,15.6z
	 M15.6,22.2L15.6,22.2v-6.7h6.8c-0.1,2.3-0.4,4.6-1,6.7H15.6z M15.6,23.3L15.6,23.3H21c-0.9,2.4-2.1,4.5-3.5,6.3
	c-0.6,0.1-1.2,0.2-1.9,0.2V23.3z M7.3,15.6L7.3,15.6h7.2v6.7H8.4C7.7,20.2,7.4,17.9,7.3,15.6L7.3,15.6z M6.2,14.4L6.2,14.4H0
	C0.1,12,0.8,9.8,1.9,7.7h5.3C6.6,9.8,6.3,12.1,6.2,14.4L6.2,14.4z M14.5,7.7L14.5,7.7v6.7H7.3c0-2.4,0.4-4.6,1-6.7H14.5z M14.5,6.6
	L14.5,6.6H8.7c0.9-2.3,2-4.4,3.4-6.2c0.7-0.1,1.5-0.2,2.3-0.2V6.6z M21.3,7.7L21.3,7.7c0.7,2.1,1,4.4,1.1,6.7h-6.8V7.7H21.3z
	 M15.6,6.6L15.6,6.6V0.2c0.6,0,1.3,0,1.9,0.2c1.5,1.8,2.7,3.9,3.5,6.3H15.6z M0,15.6L0,15.6h6.2c0,2.3,0.4,4.5,1,6.7H1.9
	C0.8,20.2,0.1,18,0,15.6L0,15.6z M12.2,29.5L12.2,29.5c-1.5-1.8-2.6-3.9-3.4-6.2h5.8v6.5C13.7,29.8,12.9,29.7,12.2,29.5L12.2,29.5z
	 M25.6,25.5c-1.8,1.7-4,3-6.5,3.8c1.2-1.8,2.3-3.8,3-5.9h5.4C26.9,24.1,26.3,24.8,25.6,25.5L25.6,25.5z"/>
</svg>
