<?xml version="1.0" encoding="utf-8"?>
<!-- Generator: Adobe Illustrator 22.0.1, SVG Export Plug-In . SVG Version: 6.00 Build 0)  -->
<svg version="1.1" id="Calque_1" xmlns="http://www.w3.org/2000/svg" xmlns:xlink="http://www.w3.org/1999/xlink" x="0px" y="0px"
	 viewBox="0 0 30 30" style="enable-background:new 0 0 30 30;" xml:space="preserve">
<style type="text/css">
	.st0{fill:#BD1352;}
</style>
<path class="st0" d="M5.8,21.2L5.8,21.2h3.6c0.5,1.6,1.3,3,2.2,4.3C9.9,25,8.3,24,7.1,22.8C6.6,22.3,6.2,21.8,5.8,21.2L5.8,21.2z
	 M7.1,7.2L7.1,7.2C8.4,5.9,10,5,11.7,4.4C10.8,5.7,10,7.2,9.4,8.8H5.8C6.2,8.2,6.6,7.6,7.1,7.2L7.1,7.2z M24.3,8.8L24.3,8.8h-4
	c-0.5-1.6-1.3-3.1-2.2-4.4c1.9,0.5,3.5,1.5,4.8,2.8C23.4,7.6,23.9,8.2,24.3,8.8L24.3,8.8z M21.3,14.6L21.3,14.6c0-1.8-0.3-3.4-0.7-5
	h4.2c0.8,1.5,1.3,3.2,1.4,5H21.3z M21.3,15.4L21.3,15.4h4.8c0,1.9-0.6,3.5-1.4,5.1v-0.1h-4.2C21,18.8,21.3,17.2,21.3,15.4L21.3,15.4
	z M15.5,20.4L15.5,20.4v-5h5.1c-0.1,1.7-0.3,3.4-0.7,5H15.5z M15.5,21.2L15.5,21.2h4c-0.7,1.8-1.6,3.3-2.6,4.7
	C16.4,25.9,16,26,15.5,26V21.2z M9.3,15.4L9.3,15.4h5.4v5h-4.5C9.6,18.9,9.4,17.2,9.3,15.4L9.3,15.4z M8.5,14.6L8.5,14.6H3.9
	c0.1-1.8,0.6-3.4,1.4-5h3.9C8.8,11.1,8.5,12.8,8.5,14.6L8.5,14.6z M14.6,9.6L14.6,9.6v5H9.3c0-1.8,0.3-3.4,0.7-5H14.6z M14.6,8.8
	L14.6,8.8h-4.3C11,7,11.8,5.5,12.9,4.1C13.4,4.1,14,4,14.6,4L14.6,8.8L14.6,8.8z M19.7,9.6L19.7,9.6c0.5,1.6,0.7,3.3,0.8,5h-5.1v-5
	H19.7z M15.5,8.8L15.5,8.8V4c0.4,0,1,0,1.4,0.1c1.1,1.3,2,2.9,2.6,4.7L15.5,8.8L15.5,8.8z M3.9,15.4L3.9,15.4h4.6
	c0,1.7,0.3,3.3,0.7,5H5.3C4.5,18.9,3.9,17.2,3.9,15.4L3.9,15.4z M12.9,25.8L12.9,25.8c-1.1-1.3-1.9-2.9-2.5-4.6h4.3V26
	C14,26,13.5,25.9,12.9,25.8L12.9,25.8z M22.9,22.8c-1.3,1.3-3,2.2-4.8,2.8c0.9-1.3,1.7-2.8,2.2-4.4h4C23.9,21.8,23.4,22.3,22.9,22.8
	L22.9,22.8z"/>
</svg>
