<?xml version="1.0" encoding="utf-8"?>
<!-- Generator: Adobe Illustrator 22.0.1, SVG Export Plug-In . SVG Version: 6.00 Build 0)  -->
<svg version="1.1" id="Calque_1" xmlns="http://www.w3.org/2000/svg" xmlns:xlink="http://www.w3.org/1999/xlink" x="0px" y="0px"
	 viewBox="0 0 30 30" style="enable-background:new 0 0 30 30;" xml:space="preserve">
<style type="text/css">
	.st0{fill:#BD1352;}
</style>
<g>
	<path class="st0" d="M11.3,1.7L11.3,1.7c-0.2,0-0.3,0-0.4,0.1c0-0.1-0.1-0.3-0.1-0.3c-0.1-0.3-0.3-0.5-0.6-0.6
		c-0.2-0.1-0.5-0.1-0.7,0C9.4,1,9.3,1.2,9.2,1.4C9.1,1.6,9.1,1.8,9.1,2c0,0.1,0,0.2,0.1,0.3c0,0,0,0.1,0.1,0.2
		c-6.4,3.1-10,10-9.2,17.1c0.1,1,0.3,2.1,0.6,3.1l0.2-0.1c0.5-3.3,3.1-5.8,6.4-5.9c0.1,0,0.2,0,0.3,0c0.4,0,0.8,0,1.2,0.1
		c0.2,0,0.3,0.1,0.5,0.1c0.4,0.1,0.8,0.3,1.2,0.5c0.2,0.1,0.4,0.2,0.6,0.3c0.5-1.6,1.5-2.9,2.8-3.9c0.8,1.9,5.1,12.6,5.1,12.6
		c0.8,1.9,2.7,3,4.4,2.5l0.2-0.1c0,0,0,0,0.1,0l0.2-0.1c1.5-1,2-3.3,1.3-5.3c0,0,0,0.1,0,0.1l0-0.1c-0.1-0.2-0.3-0.4-0.5-0.5
		c-0.2-0.1-0.5-0.1-0.7,0c-0.5,0.2-0.6,0.8-0.4,1.3c0,0,0,0.1,0,0.1c0,0,0,0,0-0.1c0.1,0.2,0.1,0.4,0.2,0.6c0.1,0.9-0.2,1.7-0.8,2.1
		c-0.8,0.3-1.8-0.3-2.2-1.4c0,0-3.9-9.7-5.1-12.6c0.6-0.2,1.1-0.3,1.8-0.3c0.9,0,1.7,0.1,2.4,0.4c0,0.1,0,0.1,0,0.2
		c0,0,0-0.1,0.1-0.1c0,0,0.1,0,0.1,0c0.2-0.7,0.5-1.4,0.9-1.9c0.3-0.4,0.5-0.7,0.8-1C24,8.1,27.4,8,29.8,10L30,9.9
		C26.6,2.6,18.6-0.9,11.3,1.7z"/>
</g>
</svg>
