<?xml version="1.0" encoding="utf-8"?>
<!-- Generator: Adobe Illustrator 22.0.1, SVG Export Plug-In . SVG Version: 6.00 Build 0)  -->
<svg version="1.1" id="Calque_1" xmlns="http://www.w3.org/2000/svg" xmlns:xlink="http://www.w3.org/1999/xlink" x="0px" y="0px"
	 viewBox="0 0 30 30" style="enable-background:new 0 0 30 30;" xml:space="preserve">
<style type="text/css">
	.st0{fill:#BD1352;}
</style>
<g>
	<path class="st0" d="M12.1,4.6L12.1,4.6c-0.2,0-0.2,0-0.3,0.1c0-0.1-0.1-0.2-0.1-0.2c-0.1-0.2-0.2-0.4-0.5-0.5
		c-0.2-0.1-0.4-0.1-0.5,0c-0.1,0.1-0.2,0.2-0.2,0.4c-0.1,0.2-0.1,0.3-0.1,0.5c0,0.1,0,0.2,0.1,0.2c0,0,0,0.1,0.1,0.2
		c-5,2.4-7.8,7.8-7.2,13.3c0.1,0.8,0.2,1.6,0.5,2.4L4,20.9c0.4-2.6,2.4-4.5,5-4.6c0.1,0,0.2,0,0.2,0c0.3,0,0.6,0,0.9,0.1
		c0.2,0,0.2,0.1,0.4,0.1c0.3,0.1,0.6,0.2,0.9,0.4c0.2,0.1,0.3,0.2,0.5,0.2c0.4-1.2,1.2-2.3,2.2-3c0.6,1.5,4,9.8,4,9.8
		c0.6,1.5,2.1,2.3,3.4,2l0.2-0.1c0,0,0,0,0.1,0l0.2-0.1c1.2-0.8,1.6-2.6,1-4.1v0.1v-0.1c-0.1-0.2-0.2-0.3-0.4-0.4
		c-0.2-0.1-0.4-0.1-0.5,0c-0.4,0.2-0.5,0.6-0.3,1v0.1c0,0,0,0,0-0.1c0.1,0.2,0.1,0.3,0.2,0.5c0.1,0.7-0.2,1.3-0.6,1.6
		c-0.6,0.2-1.4-0.2-1.7-1.1c0,0-3-7.6-4-9.8c0.5-0.2,0.9-0.2,1.4-0.2c0.7,0,1.3,0.1,1.9,0.3c0,0.1,0,0.1,0,0.2c0,0,0-0.1,0.1-0.1H19
		c0.2-0.5,0.4-1.1,0.7-1.5c0.2-0.3,0.4-0.5,0.6-0.8c1.7-1.6,4.4-1.7,6.2-0.2l0.2-0.1C24,5.3,17.8,2.6,12.1,4.6z"/>
</g>
</svg>
