<?xml version="1.0" encoding="utf-8"?>
<!-- Generator: Adobe Illustrator 22.0.1, SVG Export Plug-In . SVG Version: 6.00 Build 0)  -->
<svg version="1.1" id="Calque_1" xmlns="http://www.w3.org/2000/svg" xmlns:xlink="http://www.w3.org/1999/xlink" x="0px" y="0px"
	 viewBox="0 0 30 30" style="enable-background:new 0 0 30 30;" xml:space="preserve">
<style type="text/css">
	.st0{fill:#BD1352;}
</style>
<path class="st0" d="M16.6,9.8c-0.1,0-0.1-0.2-0.1-0.2V5.2C16.5,4.6,16,4,15.4,4c-3.4,0-7,0-10.2,0C4.4,4,4,4.6,4,5.2v19.4
	C4,25.5,4.4,26,5.2,26h19.7c0.7,0,1.2-0.5,1.2-1.2v-15L16.6,9.8z M6.1,8.3C6.1,8.1,6.3,8,6.4,8h2.5C9,8,9.2,8.1,9.2,8.3v1.5
	c0,0.2-0.2,0.3-0.3,0.3H6.4c-0.2,0.1-0.4-0.1-0.4-0.2V8.3z M6.1,15.7v-1.5c0-0.1,0.2-0.3,0.4-0.3h2.5c0.1,0,0.3,0.2,0.3,0.3v1.5
	C9.2,15.9,9,16,8.9,16H6.4C6.2,16,6.1,15.8,6.1,15.7L6.1,15.7z M11.9,23.9c0,0.2-0.1,0.3-0.3,0.3H8.8c-0.1,0-0.3-0.1-0.3-0.3v-4.8
	c0-0.2,0.2-0.3,0.3-0.3h2.8c0.2,0,0.3,0.1,0.3,0.3C11.9,19.1,11.9,23.9,11.9,23.9z M14.4,15.7c0,0.2-0.1,0.4-0.3,0.4h-2.5
	c-0.2,0-0.3-0.2-0.3-0.4v-1.5c0-0.1,0.1-0.3,0.3-0.3h2.5c0.2,0,0.3,0.2,0.3,0.3V15.7L14.4,15.7z M14.4,9.9c0,0.2-0.1,0.3-0.3,0.3
	h-2.5c-0.2,0-0.3-0.1-0.3-0.3V8.3c0-0.2,0.1-0.3,0.3-0.3h2.5c0.2,0,0.3,0.1,0.3,0.3V9.9L14.4,9.9z M19.9,20.6c0,0.2-0.2,0.4-0.3,0.4
	h-2.5c-0.2,0-0.3-0.2-0.3-0.4v-1.5c0-0.2,0.1-0.3,0.3-0.3h2.5c0.1,0,0.3,0.1,0.3,0.3V20.6z M19.9,14.9c0,0.2-0.2,0.3-0.3,0.3h-2.5
	c-0.2,0-0.3-0.1-0.3-0.3v-1.5c0-0.2,0.1-0.4,0.3-0.4h2.5c0.1,0,0.3,0.2,0.3,0.4V14.9z M24.5,20.6c0,0.2-0.1,0.4-0.3,0.4h-2.5
	c-0.2,0-0.3-0.2-0.3-0.4v-1.5c0-0.2,0.1-0.3,0.3-0.3h2.5c0.2,0,0.3,0.1,0.3,0.3V20.6z M24.5,14.9c0,0.2-0.1,0.3-0.3,0.3h-2.5
	c-0.2,0-0.3-0.1-0.3-0.3v-1.5c0-0.2,0.1-0.4,0.3-0.4h2.5c0.2,0,0.3,0.2,0.3,0.4V14.9z"/>
</svg>
