<?xml version="1.0" encoding="utf-8"?>
<!-- Generator: Adobe Illustrator 22.0.1, SVG Export Plug-In . SVG Version: 6.00 Build 0)  -->
<svg version="1.1" id="Calque_1" xmlns="http://www.w3.org/2000/svg" xmlns:xlink="http://www.w3.org/1999/xlink" x="0px" y="0px"
	 viewBox="0 0 30 30" style="enable-background:new 0 0 30 30;" xml:space="preserve">
<style type="text/css">
	.st0{fill-rule:evenodd;clip-rule:evenodd;fill:#BD1352;}
</style>
<path class="st0" d="M17.2,7.9c-0.1,0-0.1-0.3-0.1-0.3V1.7c0-0.9-0.8-1.7-1.6-1.7C10.8,0,5.9,0,1.6,0C0.6,0,0,0.8,0,1.7v26.5
	C0,29.3,0.6,30,1.6,30h26.8c0.9,0,1.6-0.7,1.6-1.7V7.8L17.2,7.9z M2.8,5.9c0-0.3,0.3-0.4,0.5-0.4h3.4c0.1,0,0.4,0.1,0.4,0.4v2.1
	c0,0.3-0.3,0.4-0.4,0.4H3.3C3,8.5,2.8,8.3,2.8,8.1V5.9z M2.8,15.9v-2.1c0-0.1,0.3-0.4,0.5-0.4h3.4c0.1,0,0.4,0.3,0.4,0.4v2.1
	c0,0.3-0.3,0.5-0.4,0.5H3.3C3,16.4,2.8,16.1,2.8,15.9L2.8,15.9z M10.8,27.1c0,0.3-0.1,0.4-0.4,0.4H6.6c-0.1,0-0.4-0.1-0.4-0.4v-6.5
	c0-0.3,0.3-0.4,0.4-0.4h3.8c0.3,0,0.4,0.1,0.4,0.4V27.1z M14.2,15.9c0,0.3-0.1,0.5-0.4,0.5h-3.4c-0.3,0-0.4-0.3-0.4-0.5v-2.1
	c0-0.1,0.1-0.4,0.4-0.4h3.4c0.3,0,0.4,0.3,0.4,0.4V15.9L14.2,15.9z M14.2,8.1c0,0.3-0.1,0.4-0.4,0.4h-3.4c-0.3,0-0.4-0.1-0.4-0.4
	V5.9c0-0.3,0.1-0.4,0.4-0.4h3.4c0.3,0,0.4,0.1,0.4,0.4V8.1L14.2,8.1z M21.7,22.7c0,0.3-0.3,0.5-0.4,0.5h-3.4c-0.3,0-0.4-0.3-0.4-0.5
	v-2.1c0-0.3,0.1-0.4,0.4-0.4h3.4c0.1,0,0.4,0.1,0.4,0.4V22.7z M21.7,14.9c0,0.3-0.3,0.4-0.4,0.4h-3.4c-0.3,0-0.4-0.1-0.4-0.4v-2.1
	c0-0.3,0.1-0.5,0.4-0.5h3.4c0.1,0,0.4,0.3,0.4,0.5V14.9z M27.9,22.7c0,0.3-0.1,0.5-0.4,0.5h-3.4c-0.3,0-0.4-0.3-0.4-0.5v-2.1
	c0-0.3,0.1-0.4,0.4-0.4h3.4c0.3,0,0.4,0.1,0.4,0.4V22.7z M27.9,14.9c0,0.3-0.1,0.4-0.4,0.4h-3.4c-0.3,0-0.4-0.1-0.4-0.4v-2.1
	c0-0.3,0.1-0.5,0.4-0.5h3.4c0.3,0,0.4,0.3,0.4,0.5V14.9z"/>
</svg>
