<?xml version="1.0" encoding="utf-8"?>
<!-- Generator: Adobe Illustrator 22.0.1, SVG Export Plug-In . SVG Version: 6.00 Build 0)  -->
<svg version="1.1" id="Calque_1" xmlns="http://www.w3.org/2000/svg" xmlns:xlink="http://www.w3.org/1999/xlink" x="0px" y="0px"
	 viewBox="0 0 30 30" style="enable-background:new 0 0 30 30;" xml:space="preserve">
<style type="text/css">
	.st0{fill-rule:evenodd;clip-rule:evenodd;fill:#BD1352;}
</style>
<path class="st0" d="M12.4,22.8h1.4v-0.6c0-0.7,0.6-1.2,1.2-1.2h2c0.7,0,1.3,0.5,1.3,1.2v0.6h1.4H21v1.3v4.2v1.4h-1.3h-7.3h-1.2
	v-1.4v-4.2v-1.3H12.4z M19.1,4.9c0,0.9,0.5,1.8,1.2,2.3l-0.8,0.4c-1.2,0-2.3,0.9-2.4,2.2L17,13.3h9.4V9.8c-0.1-1.3-1.2-2.2-2.4-2.2
	l-0.9-0.4c0.8-0.5,1.3-1.3,1.3-2.3c0-1.4-1.2-2.6-2.6-2.6C20.3,2.2,19.1,3.4,19.1,4.9L19.1,4.9z M3.7,2.6c0,1.1,0.7,2.1,1.6,2.4
	C5.1,5.3,4.8,5.5,4.5,5.8c-1.2,0-2.6,0.9-2.7,2.2L1,13.4c-0.1,1.1,0.6,2.1,1.6,2.3c-0.2,3.7,0.5,8.6,0.5,12.9c0,0.8,0.6,1.4,1.4,1.4
	C5.4,30,6,29.4,6,28.6l0.4-9.5l0.2,9.5c0,0.8,0.6,1.4,1.4,1.4c0.9,0,1.5-0.6,1.5-1.4c0-3.1,0.7-9,0.5-11.5H29v-2.9H11.8L11,7.9
	c-0.1-1.2-1.5-2.2-2.8-2.2C8,5.5,7.7,5.2,7.5,5.1C8.4,4.7,9,3.7,9,2.6C9,1.2,7.8,0,6.3,0C4.9,0,3.7,1.2,3.7,2.6L3.7,2.6z M14.7,22.8
	h2.8v-0.6c0-0.2-0.2-0.4-0.4-0.4h-2c-0.2,0-0.4,0.1-0.4,0.4V22.8z"/>
</svg>
