<?xml version="1.0" encoding="utf-8"?>
<!-- Generator: Adobe Illustrator 22.0.1, SVG Export Plug-In . SVG Version: 6.00 Build 0)  -->
<svg version="1.1" id="Calque_1" xmlns="http://www.w3.org/2000/svg" xmlns:xlink="http://www.w3.org/1999/xlink" x="0px" y="0px"
	 viewBox="0 0 30 30" style="enable-background:new 0 0 30 30;" xml:space="preserve">
<style type="text/css">
	.st0{fill:#BD0650;}
</style>
<g>
	<path class="st0" d="M23.3,16.8l-12-9.2V6.4L14.6,5l0.2,0.1c0,0,1.4,0.8,2.1,1.3c0.2,0.2,0.4,0.4,0.6,0.6c0.4,0.3,0.6,0.6,1,0.6
		c0.7,0.1,2.1,0.2,3.2-0.8c1.3-1.2,3.8-2.8,5.1-3.2c1.5-0.4,2.1,0,2.2,0.1C29.3,4.1,30,5,30,5.7c0,1.2-3.1,2.4-3.2,2.4
		c-0.3,0.1-0.8,0.2-1.2,0.4c-1,0.3-2.1,0.6-2.7,1.2c-0.2,0.2-0.4,0.3-0.5,0.5c-0.1,0.1-0.2,0.1-0.2,0.2c0.3,0.3,1.2,1,1.9,1.4
		c1.6,1.2,1.7,1.3,1.8,1.5c0.1,0.2,0.3,0.8,0.3,0.8l0.2,0.4L23.3,16.8z M12.6,7.1l10.7,8.2l1.7-1.3c0-0.1-0.1-0.2-0.1-0.3
		c-0.2-0.2-0.9-0.7-1.4-1.1c-1.6-1.1-2.1-1.5-2.3-1.8c-0.5-0.7,0-1.2,0.5-1.6C21.8,9.1,22,9,22.2,8.8c0.8-0.7,2.1-1.1,3.2-1.4
		c0.4-0.1,0.8-0.2,1.1-0.3c1.2-0.4,2.3-1.2,2.4-1.5c0-0.1-0.3-0.6-0.6-0.9c0,0,0,0-0.2,0c-0.2,0-0.5,0-0.9,0.2
		c-1.2,0.4-3.5,1.9-4.7,2.9c-1.4,1.2-3.2,1.2-4.1,1c-0.7-0.1-1.2-0.5-1.6-0.9c-0.2-0.2-0.3-0.3-0.5-0.4c-0.5-0.3-1.3-0.8-1.8-1.1
		L12.6,7.1z"/>
	<path class="st0" d="M14.8,8.1c-0.5,0-1-0.3-1-0.7s0.4-0.7,1-0.7s1,0.3,1,0.7S15.3,8.1,14.8,8.1z M14.8,6.9c-0.4,0-0.7,0.2-0.7,0.5
		s0.3,0.5,0.7,0.5c0.4,0,0.7-0.2,0.7-0.5S15.2,6.9,14.8,6.9z"/>
	<path class="st0" d="M22.5,14.2c-0.5,0-1-0.3-1-0.7c0-0.4,0.4-0.7,1-0.7c0.5,0,1,0.3,1,0.7C23.5,13.8,23.1,14.2,22.5,14.2z
		 M22.5,13c-0.4,0-0.7,0.2-0.7,0.5c0,0.3,0.3,0.5,0.7,0.5c0.4,0,0.7-0.2,0.7-0.5C23.2,13.2,22.9,13,22.5,13z"/>
	<path class="st0" d="M18.8,26.5L0,8.7l0.4-0.5c0.6-0.7,4.2-2,5.9-2.3c2.1-0.4,5.4,0.4,5.5,0.5l0.3,0.1l11.8,9.2l0,0.3
		c0,0.1,0.3,3.5-0.5,5.9c-0.8,2.5-4.1,4.2-4.2,4.3L18.8,26.5z M2.1,8.8l16.9,16c0.8-0.5,2.6-1.8,3.1-3.3c0.6-1.7,0.5-4.2,0.4-5
		L11.4,7.7C10.8,7.6,8.2,7,6.6,7.3C5.1,7.6,3.1,8.3,2.1,8.8z"/>
</g>
</svg>
