<?xml version="1.0" encoding="utf-8"?>
<!-- Generator: Adobe Illustrator 22.0.1, SVG Export Plug-In . SVG Version: 6.00 Build 0)  -->
<svg version="1.1" id="Calque_1" xmlns="http://www.w3.org/2000/svg" xmlns:xlink="http://www.w3.org/1999/xlink" x="0px" y="0px"
	 viewBox="0 0 30 30" style="enable-background:new 0 0 30 30;" xml:space="preserve">
<style type="text/css">
	.st0{fill:#BD0650;}
</style>
<path class="st0" d="M24,11.8L24,11.8l-18.5,0l-5.7,6.4h30.4L24,11.8z M29.8,18h-5.7l-2.8-6h2.6L29.8,18z M11.3,12h2.9l0.1,6h-4.1
	L11.3,12z M10,18H5.4l2.8-6h2.9L10,18z M14.4,12h3.3l1,6h-4.2L14.4,12z M17.9,12H21l2.8,6h-5L17.9,12z M5.5,12h2.4l-2.8,6H0.2
	L5.5,12z"/>
</svg>
