<?xml version="1.0" encoding="utf-8"?>
<!-- Generator: Adobe Illustrator 22.0.1, SVG Export Plug-In . SVG Version: 6.00 Build 0)  -->
<svg version="1.1" id="Calque_1" xmlns="http://www.w3.org/2000/svg" xmlns:xlink="http://www.w3.org/1999/xlink" x="0px" y="0px"
	 viewBox="0 0 30 30" style="enable-background:new 0 0 30 30;" xml:space="preserve">
<style type="text/css">
	.st0{fill-rule:evenodd;clip-rule:evenodd;fill:#BD0650;}
</style>
<path class="st0" d="M12.1,1.5L11,2.8l0,0c-0.2-0.2-0.6-0.4-0.9-0.4L0.5,15.5c0.2,0.2,0.4,0.4,0.6,0.6l1.5,1.1
	c1.1,0.8,2.8,0.6,3.5-0.5l7-9.1c0.9-1.1,0.5-2.8-0.6-3.7l0,0L13,3.2L16,5.6l-3.5,9.8c0,0.4,0,0.7,0.4,0.9l2.2,1.9l-0.6,0.7
	c-0.4,0.4-0.2,0.9,0,1.1l12.2,8.9c0.2,0.2,0.4,0,0.5,0l2.8-3.7c0-0.2,0-0.6-0.2-0.7l-12.2-8.9c-0.2-0.2-0.7-0.2-0.9,0.2l-0.6,0.9
	l-1.7-1.3l3.3-9.8c0.2-0.4,0-0.9-0.2-1.1l-4.2-3.1c-0.2-0.2-0.6-0.2-0.7-0.2C12.5,1.1,12.3,1.3,12.1,1.5L12.1,1.5z M9,2.2
	C8.4,2.4,7.9,2.8,7.5,3.3l-7,9.1c-0.5,0.5-0.5,1.5-0.4,2.2L9,2.2z"/>
</svg>
