<?xml version="1.0" encoding="utf-8"?>
<!-- Generator: Adobe Illustrator 22.0.1, SVG Export Plug-In . SVG Version: 6.00 Build 0)  -->
<svg version="1.1" id="Calque_1" xmlns="http://www.w3.org/2000/svg" xmlns:xlink="http://www.w3.org/1999/xlink" x="0px" y="0px"
	 viewBox="0 0 30 30" style="enable-background:new 0 0 30 30;" xml:space="preserve">
<style type="text/css">
	.st0{fill:#BD0650;}
</style>
<g>
	<path class="st0" d="M7.8,13.1c-0.3,0-0.6,0-0.9,0c0-0.3,0-0.6,0-0.9c-0.3,0-0.6,0-0.9,0c0-0.3,0-0.6,0-0.9c-0.3,0-0.6,0-0.9,0
		c0-0.3,0-0.6,0-0.9c-0.3,0-0.6,0-0.9,0c0-0.3,0-0.6,0-0.9c-0.3,0-0.6,0-0.9,0c0-0.3,0-0.6,0-0.9c-0.3,0-0.6,0-0.9,0
		c0-0.3,0-0.6,0-0.9c-0.3,0-0.6,0-0.9,0c0-0.3,0-0.6,0-0.9c-0.3,0-0.6,0-0.9,0c0-0.3,0-0.6,0-0.9c-0.3,0-0.6,0-0.9,0
		C0,5.6,0,5.3,0,5c0,0,0-0.1,0.1-0.1c0.8-1.2,1.6-2.3,2.4-3.5c0.1-0.1,0.1-0.2,0.2-0.2c6,4.2,12,8.4,18,12.6
		c-0.2,0.3-0.4,0.6-0.6,0.9c-0.5,0.7-1,1.5-1.6,2.2c-0.4,0.6-0.8,1.1-1.2,1.7c-0.2,0.2-0.2,0.4-0.1,0.7c0.1,0.6,0.2,1.1,0.3,1.7
		c0.2,0.9,0.3,1.9,0.5,2.8c0,0,0,0,0,0.1c-0.2,0-0.4,0-0.6,0c0-0.3,0-0.6,0-0.9c-0.3,0-0.6,0-0.9,0c0-0.3,0-0.6,0-0.9
		c-0.3,0-0.6,0-0.9,0c0-0.3,0-0.6,0-0.9c-0.3,0-0.6,0-0.9,0c0-0.3,0-0.6,0-0.9c-0.3,0-0.6,0-0.9,0c0-0.3,0-0.5,0-0.7
		c0-0.1,0-0.2-0.2-0.2c-0.2,0-0.5,0-0.7,0c0-0.3,0-0.6,0-0.9c-0.3,0-0.6,0-0.9,0c0-0.3,0-0.6,0-0.9c-0.3,0-0.6,0-0.9,0
		c0-0.3,0-0.6,0-0.9c-0.3,0-0.6,0-0.9,0c0-0.3,0-0.6,0-0.9c-0.3,0-0.6,0-0.9,0c0-0.3,0-0.6,0-0.9c-0.3,0-0.6,0-0.9,0
		c0-0.3,0-0.6,0-0.9c-0.3,0-0.6,0-0.9,0C7.8,13.7,7.8,13.4,7.8,13.1z M2.4,4.5C2.4,4.8,2.7,5,3,5c0.3,0,0.5-0.3,0.5-0.5
		c0-0.3-0.2-0.6-0.5-0.5C2.7,3.9,2.4,4.2,2.4,4.5z"/>
	<path class="st0" d="M21.4,14.3c0.7,0.5,1.4,1,2.1,1.5c0.9,0.6,1.7,1.2,2.6,1.8c0.5,0.4,1.1,0.8,1.6,1.1c0.6,0.4,1.2,0.8,1.8,1.2
		c0.8,0.6,0.7,1.7-0.2,2.2c-0.1,0.1-0.3,0.1-0.5,0.1c-0.1,0-0.1,0-0.2,0.1c-1.1,1.6-2.2,3.2-3.3,4.8c-0.1,0.1-0.1,0.1,0,0.2
		c0.1,0.5,0,1-0.5,1.3c-0.4,0.3-1,0.3-1.4,0c-0.6-0.4-1.1-0.8-1.7-1.2c-0.8-0.6-1.6-1.2-2.5-1.7c-0.1-0.1-0.2-0.1-0.2-0.3
		c-0.3-1.9-0.7-3.7-1-5.6c0-0.2-0.1-0.4-0.1-0.7c0-0.1,0-0.1,0-0.2c0.4-0.5,0.7-1,1.1-1.6c0.7-1,1.4-2,2.1-3
		C21.3,14.3,21.3,14.3,21.4,14.3z M22,17.7c0,0-0.1,0.1-0.1,0.1c-0.4,0.6-0.8,1.2-1.2,1.7c-0.1,0.1-0.1,0.2-0.1,0.3
		c0.3,1.4,0.5,2.8,0.7,4.2c0,0.1,0.1,0.2,0.1,0.2c0.6,0.4,1.1,0.8,1.7,1.2c0,0,0.1,0.1,0.1,0.1c1.1-1.5,2.2-3.1,3.2-4.6
		C25,19.8,23.5,18.8,22,17.7z"/>
</g>
</svg>
