<?xml version="1.0" encoding="utf-8"?>
<!-- Generator: Adobe Illustrator 22.0.1, SVG Export Plug-In . SVG Version: 6.00 Build 0)  -->
<svg version="1.1" id="Calque_1" xmlns="http://www.w3.org/2000/svg" xmlns:xlink="http://www.w3.org/1999/xlink" x="0px" y="0px"
	 viewBox="0 0 30 30" style="enable-background:new 0 0 30 30;" xml:space="preserve">
<style type="text/css">
	.st0{fill:#BD0650;}
</style>
<path class="st0" d="M30,7.1V6h-2.3V2.5h-1.1V6H23V2.5h-1.1V6h-14V2.5H6.7V6H3.1V2.5H2V6H0v1.1h2V12H0v1.1h2v5.2H0v1.1h2v4.7H0v1.1
	h2V27H0v0.6h30V27h-2.3v-1.6H30v-1.1h-2.3v-4.7H30v-1.1h-2.3v-5.2H30V12h-2.3V7.1H30z M6.7,27H3.1v-1.6h3.6V27z M6.7,24.2H3.1v-0.4
	h3.6V24.2z M6.7,23.2H3.1v-0.5h3.6V23.2z M6.7,22.1H3.1v-0.5h3.6V22.1z M6.7,21H3.1v-0.5h3.6V21z M6.7,20H3.1v-0.4h3.6V20z
	 M6.7,18.4H3.1v-5.2h3.6V18.4z M6.7,12H3.1v-0.5h3.6V12z M6.7,10.9H3.1v-0.5h3.6V10.9z M6.7,9.9H3.1V9.3h3.6V9.9z M6.7,8.8H3.1V8.2
	h3.6V8.8z M6.7,7.7H3.1V7.1h3.6V7.7z M7.8,7.1H20L7.8,11.7V7.1z M7.8,13.3l12.6,5.1H7.8V13.3z M7.8,19.5h11.9L7.8,24V19.5z M21.8,27
	h-14v-1.6h14V27z M21.8,24.2H9.5l12.4-4.6V24.2z M21.8,18.2l-12.3-5h12.3V18.2z M21.8,12H9.1l12.7-4.8V12z M26.5,27H23v-1.6h3.6V27z
	 M26.5,24.2H23v-4.7h3.6V24.2z M26.5,18.4H23v-0.7h3.6V18.4z M26.5,17.1H23v-0.5h3.6V17.1z M26.5,16.1H23v-0.5h3.6V16.1z M26.5,15
	H23v-0.5h3.6V15z M26.5,13.9H23v-0.7h3.6V13.9z M26.5,12H23V7.1h3.6V12z"/>
</svg>
