<svg xmlns="http://www.w3.org/2000/svg" viewBox="0 0 300 307">
  <path d="M266.2 54.5c-.3 0-.6.1-.8.2L171.5 91c-.9.3-1.5 1.2-1.5 2.2 0 1.3 1.1 2.3 2.3 2.3.3 0 .6-.1.8-.2L267 59.1c.9-.3 1.5-1.2 1.5-2.2.1-1.3-1-2.4-2.3-2.4zM106.3 1.2h-.2a5.12 5.12 0 0 0-1.1 10.1L268.4 49c.4.1.8.1 1.2.1a5.12 5.12 0 0 0 1.1-10.1L107.3 1.3c-.3-.1-.6-.1-1-.1zM92.5 7c-1.9 0-3.6.9-4.6 2.5L1.6 153.2c-.5.8-.7 1.7-.7 2.7a5.12 5.12 0 0 0 9.5 2.6L96.7 14.8c.5-.8.8-1.7.8-2.7 0-2.7-2.3-5-5-5.1zm186.9 43.2c-2.8 0-5.1 2.3-5.1 5.1v.5l14.6 167c.2 2.7 2.4 4.8 5.1 4.8 2.8 0 5.1-2.3 5.1-5.1v-.6l-14.6-167c-.2-2.6-2.4-4.7-5.1-4.7zM7.1 165.7c-2.8.1-5 2.4-5 5.1 0 1.3.5 2.5 1.3 3.4l110 126.5c1 1.1 2.4 1.8 3.9 1.8a5.12 5.12 0 0 0 3.8-8.5l-110-126.5c-1-1.2-2.5-1.8-4-1.8zm279 64.5c-.6 0-1.3.2-1.8.4L130 296.1c-1.9.8-3.2 2.7-3.2 4.7 0 2.8 2.3 5.1 5.1 5.1.7 0 1.4-.1 2.1-.4L288.3 240c1.9-.8 3.2-2.7 3.2-4.7 0-2.8-2.3-5.1-5.1-5.1h-.3zM155.3 98.1c-.4 0-.7.1-1.1.2l-137.6 62c-.8.4-1.4 1.2-1.4 2.1 0 1.3 1.1 2.3 2.3 2.3.3 0 .7-.1 1-.2l137.6-62c.9-.4 1.4-1.2 1.4-2.1 0-1.2-1-2.2-2.2-2.3zM103.5 17c-1.3 0-2.3 1.1-2.3 2.3 0 .5.2 1.1.5 1.5l57.6 71.3c.4.6 1.1.9 1.8.9 1.3 0 2.3-1.1 2.3-2.3 0-.5-.2-1.1-.5-1.5l-57.6-71.3c-.4-.6-1.1-.9-1.8-.9zm59.2 89.8c-1.1 0-2 .8-2.2 1.9L124.8 288v.5c0 1.3 1.1 2.3 2.3 2.3 1.1 0 2.1-.8 2.3-1.9L165 109.6c0-.2.1-.3.1-.5 0-1.2-1.1-2.3-2.4-2.3zm10.5-4.5c-1.2.1-2.2 1.1-2.2 2.3 0 .6.2 1.2.6 1.6L279 224.8c.4.5 1.1.8 1.7.8 1.3 0 2.3-1.1 2.3-2.3 0-.6-.2-1.2-.6-1.6L175.1 103.1c-.5-.5-1.2-.8-1.9-.8z"/>
</svg>
