<svg xmlns="http://www.w3.org/2000/svg" viewBox="0 0 300 307">
  <path d="M266.14 54.21a2.35 2.35 0 0 0-.83.16L171.64 90.6a2.32 2.32 0 0 0 .84 4.49 2.44 2.44 0 0 0 .84-.15L267 58.71a2.32 2.32 0 0 0-.8-4.5zM106.62.92h-.22A5.11 5.11 0 0 0 105.33 11l163 37.63a5.3 5.3 0 0 0 1.19.14 5.11 5.11 0 0 0 1.11-10.1l-163-37.64a5 5 0 0 0-1-.14zM92.8 6.75a5.1 5.1 0 0 0-4.55 2.54L2.09 152.69a5.11 5.11 0 1 0 8.76 5.31L97 14.55a5.12 5.12 0 0 0-4.22-7.8zm186.53 43.09a5.15 5.15 0 0 0-5.1 5.12 4.36 4.36 0 0 0 0 .51l14.58 166.66a5.11 5.11 0 0 0 10.21-.34 5.07 5.07 0 0 0 0-.55L284.44 54.58a5.14 5.14 0 0 0-5.11-4.74zM7.58 165.13a5.12 5.12 0 0 0-3.66 8.52l109.76 126.26a5.11 5.11 0 1 0 7.71-6.71L11.64 167a5.15 5.15 0 0 0-4.06-1.82zM286 229.44a5 5 0 0 0-1.83.43l-154 65.37a5.11 5.11 0 0 0 1.93 9.84 5.29 5.29 0 0 0 2.07-.43l154-65.37a5.12 5.12 0 0 0-1.93-9.85zM155.47 97.7a2.45 2.45 0 0 0-1.06.21L17.09 159.73a2.33 2.33 0 0 0 .95 4.45 2.28 2.28 0 0 0 1-.21l137.32-61.82a2.32 2.32 0 0 0-.85-4.45zm-51.64-80.98a2.34 2.34 0 0 0-2.34 2.28 2.31 2.31 0 0 0 .54 1.49l57.45 71.11a2.3 2.3 0 0 0 1.83.9 2.33 2.33 0 0 0 1.78-3.82l-57.45-71.07a2.28 2.28 0 0 0-1.81-.89zm59.08 89.63a2.32 2.32 0 0 0-2.24 1.9L150.94 157c.07.44.12.91.2 1.39a2.48 2.48 0 0 0 1.77 1.36h.1a2.82 2.82 0 0 0 1.33-.55 4.83 4.83 0 0 0 1.17-1.46l9.66-48.58a1.91 1.91 0 0 0 .06-.48 2.34 2.34 0 0 0-2.32-2.33zM144 215.19c0-.49.24-1.36.06-1.82a2.55 2.55 0 0 0-1.44-1.17c-1.41-.59-2.09.14-2.82 1l-14.7 73.93a2.3 2.3 0 0 0 0 .45 2.33 2.33 0 0 0 4.61.46L144 215.6v-.41zm29.34-113.32a2.31 2.31 0 0 0-1.58 3.9l107.18 118.28a2.33 2.33 0 1 0 3.45-3.12L175.2 102.65a2.31 2.31 0 0 0-1.86-.78zm-53.73 102.68v-37.91h7v37.91zm37.45-6.93a11.42 11.42 0 0 1-11.26 7.47c-10.45 0-13.32-9.64-13.32-19.49s2.87-19.5 13.32-19.5c6.17 0 9.69 3.41 11.53 8.18l-6.11 3.79c-.93-3.14-2.55-5.2-5.42-5.2-4.82 0-6.28 5.9-6.28 12.73s1.46 12.72 6.28 12.72c2.71 0 4.33-1.89 5.25-4.76zm5.01 6.93v-37.91h20.15v6.77h-13.11v9.69h11v6.77h-11v7.91h13.11v6.77z"/>
</svg>
