<svg xmlns="http://www.w3.org/2000/svg" viewBox="0 0 300 307">
  <path d="M266.14 54.21a2.35 2.35 0 0 0-.83.16L171.64 90.6a2.32 2.32 0 0 0 .84 4.49 2.44 2.44 0 0 0 .84-.15L267 58.71a2.32 2.32 0 0 0-.8-4.5zM106.62.92h-.22A5.11 5.11 0 0 0 105.33 11l163 37.63a5.3 5.3 0 0 0 1.19.14 5.11 5.11 0 0 0 1.11-10.1l-163-37.64a5 5 0 0 0-1-.14zM92.8 6.75a5.1 5.1 0 0 0-4.55 2.54L2.09 152.69a5.11 5.11 0 1 0 8.76 5.31L97 14.55a5.12 5.12 0 0 0-4.22-7.8zm186.53 43.09a5.15 5.15 0 0 0-5.1 5.12 4.36 4.36 0 0 0 0 .51l14.58 166.66a5.11 5.11 0 0 0 10.21-.34 5.07 5.07 0 0 0 0-.55L284.44 54.58a5.14 5.14 0 0 0-5.11-4.74zM7.58 165.13a5.12 5.12 0 0 0-3.66 8.52l109.76 126.26a5.11 5.11 0 1 0 7.71-6.71L11.64 167a5.15 5.15 0 0 0-4.06-1.82zM286 229.44a5 5 0 0 0-1.83.43l-154 65.37a5.11 5.11 0 0 0 1.93 9.84 5.29 5.29 0 0 0 2.07-.43l154-65.37a5.12 5.12 0 0 0-1.93-9.85zM155.47 97.7a2.45 2.45 0 0 0-1.06.21L17.09 159.73a2.33 2.33 0 0 0 .95 4.45 2.28 2.28 0 0 0 1-.21l137.32-61.82a2.32 2.32 0 0 0-.85-4.45zm-51.64-80.98a2.34 2.34 0 0 0-2.34 2.28 2.31 2.31 0 0 0 .54 1.49l57.45 71.11a2.3 2.3 0 0 0 1.83.9 2.33 2.33 0 0 0 1.78-3.82l-57.45-71.07a2.28 2.28 0 0 0-1.81-.89zm59.08 89.63a2.32 2.32 0 0 0-2.24 1.9L150.94 157c.07.44.12.91.2 1.39a2.48 2.48 0 0 0 1.77 1.36h.1a2.82 2.82 0 0 0 1.33-.55 4.83 4.83 0 0 0 1.17-1.46l9.66-48.58a1.91 1.91 0 0 0 .06-.48 2.34 2.34 0 0 0-2.32-2.33zM144 215.19c0-.49.24-1.36.06-1.82a2.55 2.55 0 0 0-1.44-1.17c-1.41-.59-2.09.14-2.82 1l-14.7 73.93a2.3 2.3 0 0 0 0 .45 2.33 2.33 0 0 0 4.61.46L144 215.6v-.41zm29.34-113.32a2.31 2.31 0 0 0-1.58 3.9l107.18 118.28a2.33 2.33 0 1 0 3.45-3.12L175.2 102.65a2.31 2.31 0 0 0-1.86-.78zm-61.29 102.51v-23.27c0-1.08.06-2.6.06-2.6H112s-.65 1.3-1.19 2.16l-6.48 10.91h-.11l-6.37-10.8c-.49-.86-1.3-2.37-1.3-2.37h-.1v25.97h-7v-37.8h7.78l5.77 10.15c.49.87 1.24 2.38 1.24 2.38h.11l1.3-2.43 5.67-10.1h7.77v37.8zm15.66 0v-37.8h20.09v6.75h-13.07V183h11v6.75h-11v7.88h13.07v6.75zm50.6-6.91c-1.89 4.43-5.4 7.45-11.23 7.45-10.42 0-13.28-9.61-13.28-19.44S156.66 166 167.08 166c6.16 0 9.67 3.4 11.5 8.15l-6.1 3.78c-.92-3.13-2.54-5.18-5.4-5.18-4.8 0-6.26 5.89-6.26 12.69s1.46 12.69 6.26 12.69c2.7 0 4.32-1.89 5.24-4.75zm20.47 6.91l-1.24-5.94h-8.75l-1.19 5.94h-7.34l9-37.8h8l9 37.8zm-5-24.52c-.21-1-.54-3.24-.54-3.24h-.1s-.33 2.22-.55 3.24l-2.53 12.37h6.21z"/>
</svg>
