<svg xmlns="http://www.w3.org/2000/svg" viewBox="0 0 300 307">
  <path d="M113.85 209.7h-8.53l-4-19.66c-.45-2.09-1-5.25-1-5.25h-.22s-.51 3.16-1 5.25l-4 19.66h-8.48l-8-39.54h7.68l4.07 24.18c.34 2 .68 5.14.68 5.14h.11s.45-3.17.79-5.14l4.35-24.18h7.8l4.35 24.18c.34 2 .79 5.14.79 5.14h.11s.34-3.17.68-5.14l4.07-24.18h7.68zm27.21 0l-1.3-6.21h-9.15l-1.24 6.21h-7.69l9.38-39.54h8.36l9.38 39.54zm-5.2-25.65a87 87 0 0 1-.56-3.39h-.11s-.34 2.32-.57 3.39L132 197h6.49zm19.57 25.65v-32.48h-7v-7.06h21.3v7.06h-6.95v32.48zm19.51 0v-39.54h21v7.06h-13.66v10.11h11.53v7.06h-11.53v8.25H196v7.06zm44.61 0l-4.91-12.2a16.1 16.1 0 0 1-1.7.06h-2.54v12.14h-7.34v-39.54H214c9 0 12.72 6.66 12.72 13.55a13.87 13.87 0 0 1-5.31 11.36l5.93 14.63zm-6.38-19.2c4.18 0 6.27-2.83 6.27-6.67 0-4-2.15-6.67-6.33-6.67h-2.71v13.34zm52.97-136.29a2.35 2.35 0 0 0-.83.16L171.64 90.6a2.32 2.32 0 0 0 .84 4.49 2.44 2.44 0 0 0 .84-.15L267 58.71a2.32 2.32 0 0 0-.8-4.5zM106.62.92h-.22A5.11 5.11 0 0 0 105.33 11l163 37.63a5.3 5.3 0 0 0 1.19.14 5.11 5.11 0 0 0 1.11-10.1l-163-37.64a5 5 0 0 0-1-.14zM92.8 6.75a5.1 5.1 0 0 0-4.55 2.54L2.09 152.69a5.11 5.11 0 1 0 8.76 5.31L97 14.55a5.12 5.12 0 0 0-4.22-7.8zm186.53 43.09a5.15 5.15 0 0 0-5.1 5.12 4.36 4.36 0 0 0 0 .51l14.58 166.66a5.11 5.11 0 0 0 10.21-.34 5.07 5.07 0 0 0 0-.55L284.44 54.58a5.14 5.14 0 0 0-5.11-4.74zM7.58 165.13a5.12 5.12 0 0 0-3.66 8.52l109.76 126.26a5.11 5.11 0 1 0 7.71-6.71L11.64 167a5.15 5.15 0 0 0-4.06-1.82zM286 229.44a5 5 0 0 0-1.83.43l-154 65.37a5.11 5.11 0 0 0 1.93 9.84 5.29 5.29 0 0 0 2.07-.43l154-65.37a5.12 5.12 0 0 0-1.93-9.85zM155.47 97.7a2.45 2.45 0 0 0-1.06.21L17.09 159.73a2.33 2.33 0 0 0 .95 4.45 2.28 2.28 0 0 0 1-.21l137.32-61.82a2.32 2.32 0 0 0-.85-4.45zm-51.64-80.98a2.34 2.34 0 0 0-2.34 2.28 2.31 2.31 0 0 0 .54 1.49l57.45 71.11a2.3 2.3 0 0 0 1.83.9 2.33 2.33 0 0 0 1.78-3.82l-57.45-71.07a2.28 2.28 0 0 0-1.81-.89zm59.08 89.63a2.32 2.32 0 0 0-2.24 1.9L150.94 157c.07.44.12.91.2 1.39a2.48 2.48 0 0 0 1.77 1.36h.1a2.82 2.82 0 0 0 1.33-.55 4.83 4.83 0 0 0 1.17-1.46l9.66-48.58a1.91 1.91 0 0 0 .06-.48 2.34 2.34 0 0 0-2.32-2.33zM144 220.84c0-.46.24-1.25.06-1.69a2.58 2.58 0 0 0-1.44-1.08c-1.41-.54-2.09.14-2.82.92l-14.7 68.34a2 2 0 0 0 0 .42 2.25 2.25 0 0 0 2.33 2.15 2.3 2.3 0 0 0 2.28-1.73l14.4-67c-.11-.08-.11-.17-.11-.33zm29.34-118.97a2.31 2.31 0 0 0-1.58 3.9l107.18 118.28a2.33 2.33 0 1 0 3.45-3.12L175.2 102.65a2.31 2.31 0 0 0-1.86-.78z"/>
</svg>
