<svg xmlns="http://www.w3.org/2000/svg" viewBox="0 0 300 307">
  <path d="M266.14 54.21a2.35 2.35 0 0 0-.83.16L171.64 90.6a2.32 2.32 0 0 0 .84 4.49 2.44 2.44 0 0 0 .84-.15L267 58.71a2.32 2.32 0 0 0-.8-4.5zM106.62.92h-.22A5.11 5.11 0 0 0 105.33 11l163 37.63a5.3 5.3 0 0 0 1.19.14 5.11 5.11 0 0 0 1.11-10.1l-163-37.64a5 5 0 0 0-1-.14zM92.8 6.75a5.1 5.1 0 0 0-4.55 2.54L2.09 152.69a5.11 5.11 0 1 0 8.76 5.31L97 14.55a5.12 5.12 0 0 0-4.22-7.8zm186.53 43.09a5.15 5.15 0 0 0-5.1 5.12 4.36 4.36 0 0 0 0 .51l14.58 166.66a5.11 5.11 0 0 0 10.21-.34 5.07 5.07 0 0 0 0-.55L284.44 54.58a5.14 5.14 0 0 0-5.11-4.74zM7.58 165.13a5.12 5.12 0 0 0-3.66 8.52l109.76 126.26a5.11 5.11 0 1 0 7.71-6.71L11.64 167a5.15 5.15 0 0 0-4.06-1.82zM286 229.44a5 5 0 0 0-1.83.43l-154 65.37a5.11 5.11 0 0 0 1.93 9.84 5.29 5.29 0 0 0 2.07-.43l154-65.37a5.12 5.12 0 0 0-1.93-9.85zM155.47 97.7a2.45 2.45 0 0 0-1.06.21L17.09 159.73a2.33 2.33 0 0 0 .95 4.45 2.28 2.28 0 0 0 1-.21l137.32-61.82a2.32 2.32 0 0 0-.85-4.45zm-51.64-80.98a2.34 2.34 0 0 0-2.34 2.28 2.31 2.31 0 0 0 .54 1.49l57.45 71.11a2.3 2.3 0 0 0 1.83.9 2.33 2.33 0 0 0 1.78-3.82l-57.45-71.07a2.28 2.28 0 0 0-1.81-.89zm59.08 89.63a2.32 2.32 0 0 0-2.24 1.9L150.94 157c.07.44.12.91.2 1.39a2.48 2.48 0 0 0 1.77 1.36h.1a2.82 2.82 0 0 0 1.33-.55 4.83 4.83 0 0 0 1.17-1.46l9.66-48.58a1.91 1.91 0 0 0 .06-.48 2.34 2.34 0 0 0-2.32-2.33zM144 215.19c0-.49.24-1.36.06-1.82a2.55 2.55 0 0 0-1.44-1.17c-1.41-.59-2.09.14-2.82 1l-14.7 73.93a2.3 2.3 0 0 0 0 .45 2.33 2.33 0 0 0 4.61.46L144 215.6v-.41zm29.34-113.32a2.31 2.31 0 0 0-1.58 3.9l107.18 118.28a2.33 2.33 0 1 0 3.45-3.12L175.2 102.65a2.31 2.31 0 0 0-1.86-.78zm-72.64 93.7a7.89 7.89 0 0 0 7.33 5.81c3.44 0 6.08-1.59 6.08-5.15 0-7.53-19.08-7.46-19.08-21.53a12.28 12.28 0 0 1 12.74-12.61c7.53 0 11.82 4.16 14.06 10l-7.46 4.62c-1.12-3.82-3.1-6.33-6.6-6.33a3.87 3.87 0 0 0-4.16 4.09c0 8.19 19.08 6.54 19.08 21.79 0 8.18-6.07 13.4-14.66 13.4-7.13 0-12.34-3.7-14.65-9.11zM129.22 209v-46.25h24.55V171h-16v14.2h13.4v8.25H137.8V209zm57.92 0h-9l-4.29-12.74a79.07 79.07 0 0 1-1.19-4.43h-.13s-.73 3-1.25 4.49L166.94 209h-9l8.91-23.11-8.85-23.14h9l4.29 12.68c.52 1.45 1.25 4.49 1.25 4.49h.13s.73-3 1.19-4.42l4.29-12.75h9l-8.92 23.11z"/>
</svg>
