<svg xmlns="http://www.w3.org/2000/svg" viewBox="0 0 300 307">
  <path d="M76.75 207.42v-40.59h10.5c11.19 0 14.84 9.75 14.84 20.3s-3.65 20.29-14.84 20.29zm10.5-7.25c5.16 0 7.3-5.74 7.3-13s-2.14-13-7.3-13h-3v26.09zm21.16 7.25v-40.59H130v7.25h-14v10.38h11.82v7.25H116v8.46h14v7.25zM161.1 200c-2 4.75-5.79 8-12 8-11.19 0-14.27-10.32-14.27-20.87s3.08-20.88 14.27-20.88c6.61 0 10.37 3.66 12.35 8.76l-6.56 4.06c-1-3.37-2.72-5.57-5.79-5.57-5.16 0-6.73 6.32-6.73 13.63s1.57 13.62 6.73 13.62c2.9 0 4.63-2 5.62-5.1zm3.43-12.87c0-11.14 3.36-20.88 14-20.88s14 9.74 14 20.88S189.11 208 178.5 208s-13.97-9.74-13.97-20.87zm20.41 0c0-8.47-1.8-13.63-6.44-13.63s-6.44 5.16-6.44 13.63 1.86 13.62 6.44 13.62 6.44-5.16 6.44-13.62zm30.71 20.29l-5.05-12.52h-4.35v12.47h-7.53v-40.54H210c9.22 0 13 6.85 13 13.92a14.22 14.22 0 0 1-5.45 11.65l6.09 15zm-6.56-19.71c4.29 0 6.44-2.9 6.44-6.85 0-4.11-2.2-6.84-6.49-6.84h-2.79v13.69zM271 57.06a2.21 2.21 0 0 0-.84.17l-93.43 36.53a2.32 2.32 0 0 0 .85 4.48 2.2 2.2 0 0 0 .84-.16l93.46-36.52a2.32 2.32 0 0 0-.81-4.5zM106 1.08h-.21a5.11 5.11 0 0 0-1 10.11l163 37a5.3 5.3 0 0 0 1.19.14A5.11 5.11 0 0 0 270 38.26l-163-37a5.71 5.71 0 0 0-1-.14zM92.21 7a5.13 5.13 0 0 0-4.54 2.56L2.08 153.1a5.11 5.11 0 1 0 8.77 5.23l85.6-143.59A5.11 5.11 0 0 0 92.21 7zm186.54 42.37a5.14 5.14 0 0 0-5.09 5.12v.52l15.16 166.47a5.11 5.11 0 0 0 10.2-.37 4.93 4.93 0 0 0 0-.55L283.87 54.08a5.12 5.12 0 0 0-5.12-4.71zM7.61 165.52A5.1 5.1 0 0 0 4 174l110.1 125.82a5.11 5.11 0 1 0 7.68-6.73L11.67 167.31a5.11 5.11 0 0 0-4.06-1.79zm278.44 63.28a5.16 5.16 0 0 0-1.82.43l-153.65 65.86a5.11 5.11 0 1 0 4 9.39l153.64-65.86a5.11 5.11 0 0 0-2-9.83zM155.15 97.61a2.43 2.43 0 0 0-1.06.22l-137 62.26a2.32 2.32 0 0 0 1 4.43 2.23 2.23 0 0 0 1-.21l137-62.25a2.32 2.32 0 0 0-.87-4.45zm-51.89-80.73a2.33 2.33 0 0 0-2.31 2.33 2.29 2.29 0 0 0 .54 1.48l57.65 70.86a2.32 2.32 0 1 0 3.6-2.93l-57.66-70.86a2.34 2.34 0 0 0-1.82-.88zm59.35 89.35a2.33 2.33 0 0 0-2.23 1.91l-9.51 48.71c.07.44.12.91.2 1.38a2.5 2.5 0 0 0 1.78 1.36h.1a2.78 2.78 0 0 0 1.33-.56 5 5 0 0 0 1.16-1.46l9.45-48.57a2 2 0 0 0 .05-.49 2.33 2.33 0 0 0-2.33-2.28zm-18.55 111.83c0-.46.24-1.29.05-1.74a2.6 2.6 0 0 0-1.44-1.12c-1.41-.55-2.08.15-2.81 1l-14.44 70.9a2.2 2.2 0 0 0 0 .44 2.33 2.33 0 0 0 4.6.42l14.15-69.5a.96.96 0 0 1-.11-.4zM178.46 105a2.33 2.33 0 0 0-2.19 2.33 2.29 2.29 0 0 0 .63 1.58l107.51 117.8a2.29 2.29 0 0 0 1.75.78 2.32 2.32 0 0 0 1.68-3.91L180.33 105.79a2.33 2.33 0 0 0-1.87-.79z"/>
</svg>
