<svg xmlns="http://www.w3.org/2000/svg" viewBox="0 0 300 68">
  <path d="M292.21 12.1a.58.58 0 0 0-.19 0l-20.76 8a.52.52 0 0 0 .19 1 .58.58 0 0 0 .18 0l20.76-8a.52.52 0 0 0-.18-1zM256.85.29h-.05a1.14 1.14 0 0 0-1.13 1.14 1.12 1.12 0 0 0 .89 1.1l36.13 8.34a1.26 1.26 0 0 0 .27 0 1.14 1.14 0 0 0 1.13-1.14 1.12 1.12 0 0 0-.89-1.1L257.07.33h-.22zm-3.06 1.3a1.12 1.12 0 0 0-1 .56l-19.1 31.78a1.21 1.21 0 0 0-.16.59 1.14 1.14 0 0 0 1.13 1.13 1.15 1.15 0 0 0 1-.55l19.06-31.78a1.16 1.16 0 0 0 .17-.6 1.13 1.13 0 0 0-1.1-1.13zm41.34 9.55a1.14 1.14 0 0 0-1.13 1.13v.11l3.24 36.94a1.13 1.13 0 0 0 2.26-.07.57.57 0 0 0 0-.13l-3.23-36.93a1.13 1.13 0 0 0-1.13-1zM234.9 36.69a1.13 1.13 0 0 0-.81 1.89l24.32 28a1.15 1.15 0 0 0 .87.4 1.14 1.14 0 0 0 1.13-1.14 1.16 1.16 0 0 0-.28-.75l-24.33-28a1.15 1.15 0 0 0-.9-.4zm61.71 14.25a1.07 1.07 0 0 0-.4.1l-34.14 14.48a1.14 1.14 0 0 0 .43 2.19 1.19 1.19 0 0 0 .46-.1l34.13-14.49a1.13 1.13 0 0 0 .71-1 1.14 1.14 0 0 0-1.14-1.13zm-28.93-29.2a.69.69 0 0 0-.24.05L237 35.49a.52.52 0 0 0-.31.47.53.53 0 0 0 .52.52.54.54 0 0 0 .21 0l30.44-13.7a.52.52 0 0 0-.19-1zM256.23 3.8a.52.52 0 0 0-.52.51.55.55 0 0 0 .12.33l12.74 15.76a.48.48 0 0 0 .4.2.52.52 0 0 0 .52-.52.58.58 0 0 0-.12-.33L256.63 4a.5.5 0 0 0-.4-.19zm13.09 19.86a.51.51 0 0 0-.5.42l-7.88 39.65a.31.31 0 0 0 0 .1.51.51 0 0 0 .51.51.52.52 0 0 0 .51-.41l7.88-39.65a.37.37 0 0 0 0-.11.51.51 0 0 0-.51-.51zm2.32-.99a.52.52 0 0 0-.49.51.5.5 0 0 0 .14.35L295 49.75a.52.52 0 0 0 .91-.34.54.54 0 0 0-.14-.36l-23.72-26.21a.5.5 0 0 0-.41-.17zM17.26 41.43c-1.38 3.32-3.36 5.8-7.87 5.8C1.68 47.23.5 40 .5 33.64c0-6.76 1.34-14.2 9.05-14.2 4.58 0 6.79 2.63 8 6.18l-5.3 2.49c-.61-2.07-1.34-2.87-2.6-2.87-2 0-2.82 2.1-2.82 8.36 0 5.46.61 7.83 2.71 7.83 1.1 0 1.91-.65 2.59-2.79zm13.09 5.27l-2.52-8.21h-1.72v8.21h-6.33V20h7.94c6.1 0 8.62 4.89 8.62 9.13a9.37 9.37 0 0 1-3.4 7.75L37 46.7zM27.3 32.8c2 0 2.74-1.56 2.74-3.59s-.8-3.59-2.78-3.59h-1.15v7.18zm22.02 13.9H43v-7.3L36.68 20h6.76l2.1 8a29.6 29.6 0 0 1 .61 4.28h.07s.31-2.71.69-4.28l2-8h6.83l-6.42 19.4zm11.76-8.21a4.05 4.05 0 0 0 3.63 2.75 1.75 1.75 0 0 0 2-1.72c0-3.67-10.38-4.51-10.38-12.33 0-4.39 3.28-7.75 8.17-7.75a8.21 8.21 0 0 1 8 5.76l-5 3c-.42-1.75-1.64-3.13-3.13-3.13a1.73 1.73 0 0 0-1.83 1.76c0 3.78 10.5 3.89 10.5 12.4 0 5-3.67 8-8.55 8a9.36 9.36 0 0 1-8.71-5.54zm17.18 8.21V26.08h-3.93V20h14.24v6.11h-3.94V46.7zm21.84 0l-.39-3h-4.92l-.3 3h-6.65L93.57 20h7.48l5.73 26.73zm-2.33-16.57c-.23-1.53-.42-3.7-.42-3.7h-.08s-.23 2.17-.46 3.7l-1.07 8h3.1zM108.7 46.7V20h6.3v20.59h6.49v6.11zm31.79-11.3V34h6.87c0 7.48-2.33 13.13-8.09 13.13-5.92 0-8.4-5.88-8.4-13.75s2.48-13.74 8.4-13.74c4 0 6.41 2.64 7.6 6.76l-1.49.42c-1-3.51-3-5.76-6.11-5.76-4.81 0-6.87 5.07-6.87 12.32s2.06 12.33 6.87 12.33c4.31 0 6.26-4.16 6.53-10.26zm24.01 11.29l-4.39-9.19a10 10 0 0 1-2.18.19h-4.5v9h-1.53V20h6c5.84 0 8.55 3.55 8.55 8.86 0 4.05-1.6 7.1-4.92 8.28l4.66 9.58zm-6.57-10.45c4.74 0 7-2.83 7-7.41s-2.29-7.41-7-7.41h-4.5v14.82zm12.14-2.91c0-7.86 2.48-13.74 8.4-13.74s8.43 5.88 8.43 13.74-2.52 13.75-8.43 13.75-8.4-5.88-8.4-13.75zm15.31 0c0-7.25-2.1-12.32-6.91-12.32s-6.87 5.07-6.87 12.32 2.06 12.33 6.87 12.33 6.91-5.07 6.91-12.33zM204.55 20h1.53v17.76c0 6.11-2.71 9.32-7.37 9.32s-7.37-3.21-7.37-9.32V20h1.53v18c0 5.08 2.33 7.6 5.84 7.6s5.84-2.49 5.84-7.6zm6.76 26.69V20h6c6 0 8.55 3.94 8.55 9.62s-2.52 9.62-8.55 9.62h-4.51v7.48zm6-8.93c4.92 0 7-3.2 7-8.17s-2.1-8.17-7-8.17h-4.51v16.34z"/>
</svg>
