<svg xmlns="http://www.w3.org/2000/svg" viewBox="0 0 30 30">
  <path d="M28.53 9.1a10.92 10.92 0 0 1-3.19.88 5.62 5.62 0 0 0 2.45-3.07 11.32 11.32 0 0 1-3.53 1.34 5.56 5.56 0 0 0-9.61 3.8 5.32 5.32 0 0 0 .15 1.27 15.76 15.76 0 0 1-11.45-5.8 5.56 5.56 0 0 0 1.72 7.41 5.64 5.64 0 0 1-2.52-.69v.07A5.56 5.56 0 0 0 7 19.75a5.49 5.49 0 0 1-1.47.2 6 6 0 0 1-1-.1 5.56 5.56 0 0 0 5.16 3.85 11.15 11.15 0 0 1-6.9 2.38A9.55 9.55 0 0 1 1.47 26 15.65 15.65 0 0 0 10 28.5a15.69 15.69 0 0 0 15.8-15.8v-.72a11 11 0 0 0 2.73-2.88zm0 0"/>
</svg>
